<svg width="24" height="24" viewBox="0 0 24 24" fill="none" xmlns="http://www.w3.org/2000/svg">
<path fill-rule="evenodd" clip-rule="evenodd" d="M12 0C5.37258 0 0 5.37258 0 12C0 18.6274 5.37258 24 12 24C18.6274 24 24 18.6274 24 12C24 8.8174 22.7357 5.76516 20.4853 3.51472C18.2348 1.26428 15.1826 0 12 0ZM12.0001 3.59991C13.9883 3.59991 15.6001 5.21168 15.6001 7.19991C15.6001 9.18813 13.9883 10.7999 12.0001 10.7999C10.0119 10.7999 8.40009 9.18813 8.40009 7.19991C8.40009 5.21168 10.0119 3.59991 12.0001 3.59991ZM11.9998 20.384C14.6579 20.384 17.1591 19.1259 18.7438 16.9918C18.9894 16.6329 19.0215 16.1692 18.8278 15.7798L18.5518 15.2158C17.948 13.9835 16.6961 13.2016 15.3238 13.1998H8.67581C7.28396 13.2013 6.01767 14.005 5.42381 15.2638L5.17181 15.7918C4.98282 16.178 5.01487 16.6357 5.25581 16.9918C6.84049 19.1259 9.34172 20.384 11.9998 20.384Z" fill="#0C3F36"/>
</svg>
