<svg width="60" height="64" viewBox="0 0 60 64" fill="none" xmlns="http://www.w3.org/2000/svg">
<path d="M29.8043 0C13.3702 0 0 12.5701 0 28.0207C0 29.733 0 42.9785 0 43.2142C0 46.3043 2.67404 48.8183 5.96085 48.8183H8.28956C9.10977 50.9925 11.3183 52.5544 13.9087 52.5544C17.1955 52.5544 19.8695 50.0404 19.8695 46.9503V31.7568C19.8695 28.6667 17.1955 26.1527 13.9087 26.1527C11.3183 26.1527 9.10977 27.7146 8.28956 29.8888H5.96085C5.26423 29.8888 4.59582 30.0027 3.9739 30.2101V28.0207C3.9739 14.6302 15.5614 3.7361 29.8043 3.7361C44.0471 3.7361 55.6346 14.6302 55.6346 28.0207V30.2101C55.0127 30.0027 54.3443 29.8888 53.6477 29.8888H51.319C50.4988 27.7146 48.2902 26.1527 45.6999 26.1527C42.4131 26.1527 39.739 28.6667 39.739 31.7568V46.9503C39.739 50.0404 42.4131 52.5544 45.6999 52.5544C46.3014 52.5544 46.8821 52.4695 47.43 52.3129C46.6867 54.6121 44.4113 56.2905 41.726 56.2905H35.4234C34.6031 54.1163 32.3946 52.5544 29.8043 52.5544C26.5174 52.5544 23.8434 55.0684 23.8434 58.1586C23.8434 61.2487 26.5174 63.7627 29.8043 63.7627C32.3946 63.7627 34.6031 62.2008 35.4234 60.0266H41.726C47.204 60.0266 51.6607 55.8366 51.6607 50.6864V48.8183H53.6477C56.9345 48.8183 59.6085 46.3043 59.6085 43.2142C59.6085 42.982 59.6085 29.7316 59.6085 28.0207C59.6085 12.5701 46.2383 0 29.8043 0ZM11.9217 31.7568C11.9217 30.7268 12.8131 29.8888 13.9087 29.8888C15.0043 29.8888 15.8956 30.7268 15.8956 31.7568V46.9503C15.8956 47.9803 15.0043 48.8183 13.9087 48.8183C12.8131 48.8183 11.9217 47.9803 11.9217 46.9503V31.7568ZM5.96085 33.6249H7.9478V45.0822H5.96085C4.86525 45.0822 3.9739 44.2442 3.9739 43.2142V35.4929C3.9739 34.4629 4.86525 33.6249 5.96085 33.6249ZM29.8043 60.0266C28.7087 60.0266 27.8173 59.1886 27.8173 58.1586C27.8173 57.1285 28.7087 56.2905 29.8043 56.2905C30.8999 56.2905 31.7912 57.1285 31.7912 58.1586C31.7912 59.1886 30.8999 60.0266 29.8043 60.0266ZM47.6868 46.9503C47.6868 47.9803 46.7955 48.8183 45.6999 48.8183C44.6043 48.8183 43.7129 47.9803 43.7129 46.9503V31.7568C43.7129 30.7268 44.6043 29.8888 45.6999 29.8888C46.7955 29.8888 47.6868 30.7268 47.6868 31.7568V46.9503ZM55.6346 43.2142C55.6346 44.2442 54.7433 45.0822 53.6477 45.0822H51.6607V33.6249H53.6477C54.7433 33.6249 55.6346 34.4629 55.6346 35.4929V43.2142Z" fill="#2C99B0"/>
</svg>
