<svg width="90" height="86" viewBox="0 0 90 86" fill="none" xmlns="http://www.w3.org/2000/svg">
<path d="M87.1875 68.156C87.1875 66.8234 86.0625 65.624 84.5156 65.624H5.48438C4.07813 65.624 2.8125 66.6901 2.8125 68.156V70.6881C2.8125 72.0208 3.9375 73.2202 5.48438 73.2202H84.5156C85.9219 73.2202 87.1875 72.1541 87.1875 70.6881V68.156Z" fill="#FFBD3F"/>
<path d="M17.2969 83.0821C22.4228 83.0821 26.5781 79.2038 26.5781 74.4197C26.5781 69.6356 22.4228 65.7573 17.2969 65.7573C12.171 65.7573 8.01562 69.6356 8.01562 74.4197C8.01562 79.2038 12.171 83.0821 17.2969 83.0821Z" fill="#3E4347"/>
<path d="M17.2969 79.3506C20.2481 79.3506 22.6406 77.143 22.6406 74.4197C22.6406 71.6964 20.2481 69.4888 17.2969 69.4888C14.3456 69.4888 11.9531 71.6964 11.9531 74.4197C11.9531 77.143 14.3456 79.3506 17.2969 79.3506Z" fill="#FFBD3F"/>
<path d="M71.4375 83.0821C76.5634 83.0821 80.7188 79.2038 80.7188 74.4197C80.7188 69.6356 76.5634 65.7573 71.4375 65.7573C66.3116 65.7573 62.1562 69.6356 62.1562 74.4197C62.1562 79.2038 66.3116 83.0821 71.4375 83.0821Z" fill="#3E4347"/>
<path d="M71.4375 79.3506C74.3888 79.3506 76.7812 77.143 76.7812 74.4197C76.7812 71.6964 74.3888 69.4888 71.4375 69.4888C68.4862 69.4888 66.0938 71.6964 66.0938 74.4197C66.0938 77.143 68.4862 79.3506 71.4375 79.3506Z" fill="#FFBD3F"/>
<path d="M76.6407 25.7769H39.6563C35.2969 25.7769 31.7813 29.1086 31.7813 33.2399V65.624H84.5157V33.2399C84.5157 29.1086 81.0001 25.7769 76.6407 25.7769Z" fill="#62727A"/>
<path d="M21.2343 35.772C14.9062 35.772 13.3593 35.772 13.3593 45.7671C13.3593 53.2301 5.48431 53.2301 5.48431 60.6931V65.624H31.9218V35.772H21.2343Z" fill="#F15744"/>
<path d="M8.15625 58.161H10.8281V63.0919H8.15625V58.161Z" fill="#FFCE31"/>
<path d="M18 53.2301C16.4532 53.2301 15.6094 54.2962 16.1719 55.6289L18.4219 60.9596C18.9844 62.2923 20.6719 63.2252 22.2188 63.2252H26.4375C27.9844 63.2252 29.25 62.1591 29.25 60.6931V55.7622C29.25 54.4295 27.9844 53.2301 26.4375 53.2301H18Z" fill="#D33B23"/>
<path d="M29.2501 38.1708H18.7032C18.7032 38.1708 16.0313 38.4373 16.0313 41.9023V47.8993C16.0313 47.8993 16.0313 50.698 18.7032 50.698H29.2501V38.1708Z" fill="#3E4347"/>
<path d="M17.2969 70.5549C17.9959 70.5549 18.5626 70.0179 18.5626 69.3555C18.5626 68.6931 17.9959 68.1561 17.2969 68.1561C16.598 68.1561 16.0313 68.6931 16.0313 69.3555C16.0313 70.0179 16.598 70.5549 17.2969 70.5549Z" fill="#3E4347"/>
<path d="M12.797 73.0869C13.496 73.0869 14.0626 72.5499 14.0626 71.8875C14.0626 71.2251 13.496 70.6881 12.797 70.6881C12.098 70.6881 11.5314 71.2251 11.5314 71.8875C11.5314 72.5499 12.098 73.0869 12.797 73.0869Z" fill="#3E4347"/>
<path d="M12.0938 75.7524C12.6563 75.3526 13.5001 75.6191 13.9219 76.1522C14.3438 76.6852 14.0626 77.4849 13.5001 77.8847C12.9376 78.2845 12.0938 78.0179 11.6719 77.4849C11.2501 76.8185 11.3907 76.1522 12.0938 75.7524Z" fill="#3E4347"/>
<path d="M17.2969 80.55C17.9959 80.55 18.5626 80.013 18.5626 79.3506C18.5626 78.6882 17.9959 78.1512 17.2969 78.1512C16.598 78.1512 16.0313 78.6882 16.0313 79.3506C16.0313 80.013 16.598 80.55 17.2969 80.55Z" fill="#3E4347"/>
<path d="M21.9376 78.018C22.6366 78.018 23.2032 77.481 23.2032 76.8186C23.2032 76.1561 22.6366 75.6191 21.9376 75.6191C21.2386 75.6191 20.672 76.1561 20.672 76.8186C20.672 77.481 21.2386 78.018 21.9376 78.018Z" fill="#3E4347"/>
<path d="M21.9376 73.0869C22.6366 73.0869 23.2032 72.5499 23.2032 71.8875C23.2032 71.2251 22.6366 70.6881 21.9376 70.6881C21.2386 70.6881 20.672 71.2251 20.672 71.8875C20.672 72.5499 21.2386 73.0869 21.9376 73.0869Z" fill="#3E4347"/>
<path d="M17.2968 76.9518C18.7725 76.9518 19.9687 75.8181 19.9687 74.4197C19.9687 73.0212 18.7725 71.8876 17.2968 71.8876C15.8212 71.8876 14.6249 73.0212 14.6249 74.4197C14.6249 75.8181 15.8212 76.9518 17.2968 76.9518Z" fill="#62727A"/>
<path d="M71.4376 70.5549C72.1365 70.5549 72.7032 70.0179 72.7032 69.3555C72.7032 68.6931 72.1365 68.1561 71.4376 68.1561C70.7386 68.1561 70.1719 68.6931 70.1719 69.3555C70.1719 70.0179 70.7386 70.5549 71.4376 70.5549Z" fill="#3E4347"/>
<path d="M66.7969 73.0869C67.4959 73.0869 68.0626 72.5499 68.0626 71.8875C68.0626 71.2251 67.4959 70.6881 66.7969 70.6881C66.098 70.6881 65.5313 71.2251 65.5313 71.8875C65.5313 72.5499 66.098 73.0869 66.7969 73.0869Z" fill="#3E4347"/>
<path d="M66.0938 75.7524C66.6563 75.3526 67.5001 75.6191 67.9219 76.1522C68.3438 76.6852 68.0626 77.4849 67.5001 77.8847C66.9376 78.2845 66.0938 78.0179 65.6719 77.4849C65.2501 76.8185 65.5313 76.1522 66.0938 75.7524Z" fill="#3E4347"/>
<path d="M71.4376 80.55C72.1365 80.55 72.7032 80.013 72.7032 79.3506C72.7032 78.6882 72.1365 78.1512 71.4376 78.1512C70.7386 78.1512 70.1719 78.6882 70.1719 79.3506C70.1719 80.013 70.7386 80.55 71.4376 80.55Z" fill="#3E4347"/>
<path d="M75.9376 78.018C76.6366 78.018 77.2032 77.481 77.2032 76.8186C77.2032 76.1561 76.6366 75.6191 75.9376 75.6191C75.2386 75.6191 74.6719 76.1561 74.6719 76.8186C74.6719 77.481 75.2386 78.018 75.9376 78.018Z" fill="#3E4347"/>
<path d="M75.9376 73.0869C76.6366 73.0869 77.2032 72.5499 77.2032 71.8875C77.2032 71.2251 76.6366 70.6881 75.9376 70.6881C75.2386 70.6881 74.6719 71.2251 74.6719 71.8875C74.6719 72.5499 75.2386 73.0869 75.9376 73.0869Z" fill="#3E4347"/>
<path d="M71.4374 76.9518C72.9131 76.9518 74.1093 75.8181 74.1093 74.4197C74.1093 73.0212 72.9131 71.8876 71.4374 71.8876C69.9618 71.8876 68.7656 73.0212 68.7656 74.4197C68.7656 75.8181 69.9618 76.9518 71.4374 76.9518Z" fill="#62727A"/>
<path d="M39.9376 44.0346C39.2344 43.5015 38.2501 43.235 36.8438 43.235C36.0001 43.235 35.1563 43.235 34.5938 43.3683V50.5647C35.0157 50.5647 35.7188 50.698 36.5626 50.698C38.1094 50.698 39.2344 50.2982 40.0782 49.6318C40.7813 48.9655 41.3438 48.0326 41.3438 46.7C41.0626 45.5005 40.6407 44.7009 39.9376 44.0346ZM36.7032 49.6318H35.8594V44.4344C36.0001 44.4344 36.4219 44.3011 36.8438 44.3011C38.6719 44.3011 39.6563 45.234 39.6563 46.8332C39.6563 48.699 38.5313 49.6318 36.7032 49.6318Z" fill="white"/>
<path d="M46.6876 47.3663H43.7344V49.4986H46.9688V50.5647H42.3282V43.235H46.8282V44.4344H43.7344V46.3002H46.6876V47.3663Z" fill="white"/>
<path d="M49.6407 49.4986V43.235H48.2344V50.5647H52.8751V49.4986H49.6407Z" fill="white"/>
<path d="M53.8594 43.235H55.2657V50.5647H53.8594V43.235Z" fill="white"/>
<path d="M61.4531 43.235L60.3281 46.5667C60.0469 47.4996 59.7656 48.2992 59.4844 49.232C59.3437 48.2992 59.0625 47.4996 58.7812 46.5667L57.6563 43.235H56.25L58.7812 50.5647H60.4688L63.1406 43.235H61.4531Z" fill="white"/>
<path d="M65.2501 49.4986V47.3663H68.2032V46.3002H65.2501V44.4344H68.3438V43.235H63.8438V50.5647H68.4844V49.4986H65.2501Z" fill="white"/>
<path d="M74.6719 48.5657C74.5313 47.8994 74.1094 47.3663 73.5469 47.0998C74.2501 46.8332 74.9532 46.1669 74.9532 45.234C74.9532 44.5677 74.6719 44.1679 74.2501 43.7681C73.6876 43.3683 72.9844 43.235 71.8594 43.235C71.0157 43.235 70.3126 43.235 69.7501 43.3683V50.5647H71.1563V47.4996H71.8594C72.7032 47.4996 72.9844 47.7661 73.2657 48.8322C73.5469 49.7651 73.6876 50.2982 73.8282 50.5647H75.2344C75.0938 50.2982 74.9532 49.4986 74.6719 48.5657ZM72.0001 46.5667H71.1563V44.3011H72.0001C72.9844 44.3011 73.5469 44.7009 73.5469 45.5005C73.5469 46.1669 72.9844 46.5667 72.0001 46.5667Z" fill="white"/>
<path d="M80.2969 43.235L79.3126 45.1007C79.0313 45.6338 78.8907 46.0336 78.6094 46.5667C78.4688 46.0336 78.1876 45.6338 77.9063 45.1007L76.9219 43.235H75.3751L77.7657 47.4996V50.5647H79.1719V47.4996L81.7032 43.235H80.2969Z" fill="white"/>
<path d="M38.3906 40.7029V33.2399C38.3906 32.5735 38.9531 32.0405 39.6562 32.0405H76.5C77.2031 32.0405 77.7656 32.5735 77.7656 33.2399V40.7029H80.4374V33.2399C80.4374 31.2408 78.6093 29.5084 76.5 29.5084H39.6562C37.4062 29.5084 35.7187 31.2408 35.7187 33.2399V40.7029H38.3906Z" fill="#3E4347"/>
<path d="M77.9062 53.2301V58.161C77.9062 58.8274 77.3437 59.3604 76.6406 59.3604H39.6562C38.9531 59.3604 38.3906 58.8274 38.3906 58.161V53.2301H35.7187V58.161C35.7187 60.16 37.5468 61.8925 39.6562 61.8925H76.5C78.75 61.8925 80.4374 60.16 80.4374 58.161V53.2301H77.9062Z" fill="#3E4347"/>
<path d="M41.0625 35.6387C41.7615 35.6387 42.3281 35.1017 42.3281 34.4393C42.3281 33.7769 41.7615 33.2399 41.0625 33.2399C40.3635 33.2399 39.7969 33.7769 39.7969 34.4393C39.7969 35.1017 40.3635 35.6387 41.0625 35.6387Z" fill="#FFBD3F"/>
<path d="M75.3749 35.6387C76.0739 35.6387 76.6406 35.1017 76.6406 34.4393C76.6406 33.7769 76.0739 33.2399 75.3749 33.2399C74.676 33.2399 74.1093 33.7769 74.1093 34.4393C74.1093 35.1017 74.676 35.6387 75.3749 35.6387Z" fill="#FFBD3F"/>
<path d="M41.0625 58.1609C41.7615 58.1609 42.3281 57.6239 42.3281 56.9615C42.3281 56.2991 41.7615 55.7621 41.0625 55.7621C40.3635 55.7621 39.7969 56.2991 39.7969 56.9615C39.7969 57.6239 40.3635 58.1609 41.0625 58.1609Z" fill="#FFBD3F"/>
<path d="M75.3749 58.1609C76.0739 58.1609 76.6406 57.6239 76.6406 56.9615C76.6406 56.2991 76.0739 55.7621 75.3749 55.7621C74.676 55.7621 74.1093 56.2991 74.1093 56.9615C74.1093 57.6239 74.676 58.1609 75.3749 58.1609Z" fill="#FFBD3F"/>
<path d="M52.875 74.4197C52.875 75.7523 51.75 76.9517 50.2031 76.9517H39.6563C38.25 76.9517 36.9844 75.8856 36.9844 74.4197V71.8876C36.9844 70.5549 38.1094 69.3555 39.6563 69.3555H50.2031C51.6094 69.3555 52.875 70.4216 52.875 71.8876V74.4197Z" fill="#62727A"/>
<path d="M40.0781 70.6881C39.2344 70.6881 38.3906 71.2212 38.3906 71.8875C38.3906 72.5539 39.0938 73.0869 40.0781 73.0869H49.9219C50.7656 73.0869 51.6094 72.5539 51.6094 71.8875C51.6094 71.2212 50.9063 70.6881 49.9219 70.6881H40.0781Z" fill="#FFBD3F"/>
</svg>
