<svg width="148" height="34" viewBox="0 0 148 34" fill="none" xmlns="http://www.w3.org/2000/svg">
<path d="M63.4539 16.1385H65.6244C66.6016 16.1385 67.4835 15.7125 67.4729 14.9058C67.4729 14.19 66.687 13.6787 65.6818 13.6901H63.4524L63.4539 16.1385ZM59.6677 11.5314H66.7996C68.7365 11.5314 71.4345 12.1676 71.4345 14.44C71.4345 15.8942 70.5578 16.7123 68.8892 17.0872C68.9678 17.0872 69.8414 17.3712 70.2026 18.195C70.2177 18.195 72.2431 22.4612 72.2658 22.4726H68.0609L66.5645 19.1834C66.3348 18.6778 65.8353 18.3427 65.1264 18.3427H63.5416V22.4726H59.6677V11.5314ZM125.159 11.2644C129.271 11.2644 132.414 13.0766 132.414 17.0247C132.414 20.7968 129.256 22.7396 125.159 22.7396C121.079 22.7396 117.942 20.8422 117.942 17.0247C117.942 13.0766 121.056 11.2644 125.159 11.2644ZM121.993 17.0247C121.993 18.6892 122.945 20.5809 125.159 20.5752C127.381 20.5752 128.311 18.6892 128.334 17.0247C128.334 15.5136 127.381 13.4742 125.159 13.4742C122.945 13.4742 121.993 15.3546 121.993 17.0247ZM143.002 22.4726L137.954 15.2807V22.4726H134.289V11.5314H139.307L144.091 18.5869V11.5314H147.726V22.4726H143.002ZM116.068 11.7132L115.804 13.9912C113.808 13.1675 110.022 13.1447 110.022 14.44C110.022 16.3601 116.771 14.974 116.771 19.0868C116.771 23.1259 110.34 23.1713 106.175 22.234L106.472 19.8253C109.085 20.74 112.781 20.9388 112.781 19.3538C112.781 17.6098 106.002 18.5926 106.002 14.6842C106.002 11.4746 111.284 10.6168 116.068 11.7132ZM104.124 11.7132L103.858 13.9912C101.863 13.1675 98.0763 13.1447 98.0763 14.44C98.0763 16.3601 104.827 14.974 104.827 19.0868C104.827 23.1259 98.402 23.1713 94.2334 22.234L94.5281 19.8253C97.1399 20.74 100.838 20.9388 100.838 19.3538C100.838 17.6098 94.0596 18.5926 94.0596 14.6842C94.0596 11.4746 99.3406 10.6168 104.124 11.7132ZM92.4741 11.8836L92.208 14.2241C89.0113 12.8323 84.1104 13.2754 84.0235 16.9225C83.9343 20.5695 89.0702 21.0978 92.3267 19.8594L92.5307 22.251C86.7819 23.5974 79.913 22.251 79.9432 16.9225C79.9735 11.7245 86.896 10.2873 92.4733 11.8836H92.4741ZM78.0365 22.4726H74.0795V11.5314H78.0365V22.4726ZM56.4982 18.1381H49.5984V20.1776H56.9101V22.4669H45.6716V11.5314H56.7959V13.8037H49.5991V15.7806H56.4989L56.4982 18.1381Z" fill="#F9FFFE"/>
<path d="M6.17986 33.4026C3.89697 34.0192 1.38008 33.1349 0.545236 31.4228C-0.289611 29.7108 0.87076 27.8132 3.14297 27.1747L27.5359 20.4525C29.8207 19.8224 32.3556 20.7049 33.195 22.4248C34.0351 24.1446 32.8599 26.0504 30.5711 26.68L6.17986 33.4026ZM6.17986 23.4783C3.89697 24.0949 1.38008 23.2105 0.545236 21.4985C-0.289611 19.7864 0.87076 17.8889 3.14297 17.2504L27.5359 10.5286C29.8207 9.89761 32.3556 10.781 33.195 12.5009C34.0346 14.2203 32.8594 16.1256 30.5711 16.7548L6.17986 23.4783ZM6.17986 13.5539C3.90539 14.1486 1.41676 13.2625 0.587895 11.5629C-0.240959 9.8634 0.896143 7.97819 3.14297 7.32689L27.5359 0.604662C29.8207 -0.0263173 32.3556 0.857054 33.195 2.57699C34.0346 4.29637 32.8594 6.20167 30.5711 6.83088L6.17986 13.5539Z" fill="#F9FFFE"/>
</svg>
