<svg width="172" height="26" viewBox="0 0 172 26" fill="none" xmlns="http://www.w3.org/2000/svg">
<path d="M13.6623 4.42729C11.6327 4.42729 11.0569 5.10381 11.0569 6.59394V9.05633H16.4535L15.9233 13.0418H11.0569V25.1253H4.59984V13.0418H0.221428V9.05633H4.57789V6.66375C4.57789 2.64269 6.72235 0.528076 12.7403 0.528076C14.0321 0.528076 15.5771 0.597886 16.4991 0.701967V4.44632L13.6623 4.42729ZM16.8705 17.5858C16.8705 22.0753 19.7073 25.4376 25.6105 25.4376C28.839 25.4376 30.8686 24.2241 31.7669 22.6832V25.1101H37.9707V9.05379H31.7669V11.5162C30.8214 9.97401 28.8626 8.70854 25.6105 8.70854C19.7006 8.70854 16.8705 12.0886 16.8705 16.5603V17.5858ZM23.3512 16.4905C23.3512 14.0979 24.5264 12.5049 27.5253 12.5049C30.1763 12.5049 31.5154 13.9608 31.5154 16.2493V17.8613C31.5154 20.1498 30.178 21.6056 27.5253 21.6056C24.5281 21.6056 23.3512 20.0279 23.3512 17.6201V16.4905ZM51.4386 8.70728C43.8705 8.70981 40.409 11.7764 40.409 16.6999V17.445C40.409 22.3672 43.8671 25.4363 51.4555 25.4363C53.9883 25.4363 56.3438 25.0378 57.6592 24.3612L56.229 20.9113C54.8799 21.3909 53.4087 21.645 51.9164 21.6564C48.411 21.6564 46.8896 20.1307 46.8896 17.5478V16.6123C46.8896 14.0128 48.4093 12.5037 51.9164 12.5037C53.605 12.5037 55.2378 12.868 56.229 13.2487L57.6592 9.79885C56.3455 9.10583 53.9697 8.70728 51.4555 8.70728H51.4386ZM58.4883 17.6861C58.4883 22.4015 61.5327 25.4693 69.6952 25.4693C72.7852 25.4693 76.2907 24.9667 77.9961 24.2889L76.8209 20.9431C74.9297 21.5498 72.3699 21.9141 69.9485 21.9141C66.3519 21.9141 65.0601 20.9431 64.9217 18.7409H78.5263V16.177C78.5263 11.7345 75.622 8.68824 68.9792 8.68824C61.9211 8.68824 58.4866 11.6875 58.4866 16.2455V17.6963L58.4883 17.6861ZM64.9436 15.5994C64.9436 13.4328 66.0749 12.0632 68.9961 12.0632C71.8329 12.0632 72.7548 13.4506 72.7548 15.2009V15.5994H64.9436ZM102.509 16.5704C102.509 12.081 99.6265 8.7187 93.7233 8.7187C90.7261 8.7187 88.6509 9.86105 87.7053 11.2826V0.553462L81.2483 0.985015V25.1012H87.3608V22.6744C88.2608 24.2165 90.4965 25.4477 93.7267 25.4477C99.6366 25.4477 102.512 22.0677 102.512 17.596L102.509 16.5704ZM96.0552 17.6658C96.0552 19.9188 94.8799 21.6183 91.7899 21.6183C89.1389 21.6183 87.7087 20.1967 87.7087 17.9082V16.2265C87.7087 13.938 89.1389 12.5164 91.7899 12.5164C94.8799 12.5164 96.0552 14.1982 96.0552 16.4689V17.6658ZM104.68 17.4754C104.68 22.1032 108.186 25.4312 115.311 25.4312C122.437 25.4312 125.943 22.0854 125.943 17.4754V16.6605C125.943 12.0328 122.437 8.70474 115.311 8.70474C108.186 8.70474 104.68 12.0505 104.68 16.6605V17.4754ZM119.486 17.8054C119.486 19.9378 118.31 21.6183 115.311 21.6183C112.313 21.6183 111.137 19.9365 111.137 17.8054V16.3153C111.137 14.1829 112.313 12.5024 115.311 12.5024C118.31 12.5024 119.486 14.1842 119.486 16.3153V17.8054ZM128.087 17.4754C128.087 22.1032 131.592 25.4312 138.718 25.4312C145.844 25.4312 149.349 22.0854 149.349 17.4754V16.6605C149.349 12.0328 145.844 8.70474 138.718 8.70474C131.592 8.70474 128.087 12.0505 128.087 16.6605V17.4754ZM142.912 17.8054C142.912 19.9378 141.737 21.6183 138.738 21.6183C135.74 21.6183 134.563 19.9683 134.563 17.8105V16.3204C134.563 14.188 135.738 12.5075 138.737 12.5075C141.736 12.5075 142.911 14.1893 142.911 16.3204L142.912 17.8054ZM158.248 0.540769L151.791 0.972322V25.0581H158.248V17.2063L164.889 25.0581H171.761L164.798 16.9347L171.484 9.01444H164.612L158.246 16.6758" fill="#F9FFFE"/>
</svg>
