<svg width="19" height="12" viewBox="0 0 19 12" fill="none" xmlns="http://www.w3.org/2000/svg">
<path fill-rule="evenodd" clip-rule="evenodd" d="M12.2189 0.968875C12.2886 0.899031 12.3714 0.843616 12.4625 0.805806C12.5536 0.767997 12.6513 0.748535 12.7499 0.748535C12.8486 0.748535 12.9463 0.767997 13.0374 0.805806C13.1285 0.843616 13.2113 0.899031 13.2809 0.968875L17.7809 5.46887C17.8508 5.53854 17.9062 5.62131 17.944 5.71242C17.9818 5.80354 18.0013 5.90122 18.0013 5.99988C18.0013 6.09853 17.9818 6.19621 17.944 6.28732C17.9062 6.37844 17.8508 6.46121 17.7809 6.53088L13.2809 11.0309C13.1401 11.1717 12.9491 11.2508 12.7499 11.2508C12.5508 11.2508 12.3598 11.1717 12.2189 11.0309C12.0781 10.89 11.999 10.699 11.999 10.4999C11.999 10.3007 12.0781 10.1097 12.2189 9.96887L16.1894 5.99988L12.2189 2.03088C12.1491 1.96121 12.0937 1.87844 12.0559 1.78733C12.0181 1.69621 11.9986 1.59853 11.9986 1.49988C11.9986 1.40122 12.0181 1.30354 12.0559 1.21242C12.0937 1.12131 12.1491 1.03854 12.2189 0.968875Z" fill="#0C3F36"/>
<path fill-rule="evenodd" clip-rule="evenodd" d="M0 6C0 5.80109 0.0790178 5.61032 0.21967 5.46967C0.360322 5.32902 0.551088 5.25 0.75 5.25H16.5C16.6989 5.25 16.8897 5.32902 17.0303 5.46967C17.171 5.61032 17.25 5.80109 17.25 6C17.25 6.19891 17.171 6.38968 17.0303 6.53033C16.8897 6.67098 16.6989 6.75 16.5 6.75H0.75C0.551088 6.75 0.360322 6.67098 0.21967 6.53033C0.0790178 6.38968 0 6.19891 0 6Z" fill="#0C3F36"/>
</svg>
