<svg width="181" height="66" viewBox="0 0 181 66" fill="none" xmlns="http://www.w3.org/2000/svg">
<path d="M4.33001 35.3088C4.33001 35.3088 5.53563 30.1969 8.29563 27.5994C8.78063 27.1432 9.16813 26.7057 9.47688 26.2901C9.80251 27.5619 10.2094 28.8019 10.6138 30.0194C11.3213 32.1132 12.0331 34.1638 12.6 36.2301C12.75 36.7669 12.8888 37.3057 13.0188 37.8444L10.1288 39.1451L13.3819 39.5176C13.9884 42.5557 14.2438 45.6536 14.1431 48.7501H17.9194C17.7988 44.2651 16.9444 39.7851 15.4713 35.5413C14.7481 33.4163 13.8881 31.3501 13.0638 29.3176C12.8406 28.7607 12.6206 28.2069 12.4094 27.6532L14.8394 25.8657L11.8713 26.1594C11.5444 25.1894 11.2694 24.2194 11.0925 23.2451C10.7088 21.2176 10.8438 19.1688 11.55 17.2038C11.8894 16.2244 12.3475 15.2782 12.9906 14.4538C13.6269 13.6288 14.4594 12.9276 15.4606 12.5213C16.4934 12.104 17.6334 12.0316 18.7106 12.3151C19.5931 12.5407 20.4038 12.9913 21.0963 13.5682L21.0944 13.5694C13.35 17.8007 18.2594 26.2313 18.2594 26.2313C18.2594 26.2313 18.3469 25.0982 18.6469 23.5676C18.9695 24.3249 19.4067 25.0282 19.9431 25.6526C23.1319 29.3732 23.7813 33.6994 23.7881 33.7426L23.9613 34.9632L24.6275 34.0657C24.6738 34.0038 25.1875 33.3013 25.855 32.1269C27.1125 32.8094 28.3163 33.0544 28.3738 33.0657L28.9281 33.1744L28.8706 32.5713C28.8313 32.1488 28.9075 31.6863 29.0625 31.1988C30.8619 31.6657 32.3469 31.4238 32.4131 31.4132L33.0463 31.3057L32.68 30.6757C32.675 30.6657 32.12 29.6701 32.03 28.0876C33.4494 28.3144 34.1038 28.6713 34.1113 28.6763L34.4994 28.8944L34.7031 28.5232C34.725 28.4832 35.19 27.5863 35.3025 26.2038C36.7894 25.9794 37.7869 25.7188 37.8944 25.6888L38.75 25.4613L38.0038 24.8113C37.9781 24.7907 35.5131 22.6232 33.1781 18.2744C32.8465 17.6594 32.4652 17.0724 32.0381 16.5194C33.2344 16.9038 34.0306 17.2307 34.0306 17.2307C34.0306 17.2307 28.4169 9.55443 22.1194 12.9951L21.6425 13.2613C20.9325 12.5407 20.0463 11.9301 18.9925 11.5769C17.7525 11.1482 16.2969 11.1382 15.0181 11.5607C13.7288 11.9757 12.6463 12.7651 11.8156 13.6757C10.9756 14.5888 10.3619 15.6269 9.88563 16.6913C9.24313 18.1307 8.90938 19.6907 8.84563 21.2513C7.44063 21.1701 4.62313 21.4676 2.44251 24.6594C-1.08187 29.8176 4.33001 35.3088 4.33001 35.3088ZM31.4269 26.9982L31.5775 26.7782L31.75 26.5251C32.6149 26.5008 33.4783 26.4374 34.3375 26.3351C34.2818 26.7623 34.1793 27.1821 34.0319 27.5869C33.5638 27.4044 32.7081 27.1432 31.4269 26.9982ZM29.4344 30.2694C29.7894 29.5151 30.2744 28.7251 30.7869 27.9488C30.8906 27.9563 30.9925 27.9632 31.0906 27.9732C31.1292 28.8226 31.2985 29.661 31.5925 30.4588C31.0919 30.4813 30.3081 30.4638 29.4344 30.2694ZM26.3125 31.2882C27.1359 29.715 27.804 28.0653 28.3075 26.3626C29.0422 26.4572 29.7813 26.5125 30.5219 26.5282C29.3181 28.2951 28.0738 30.2269 27.9369 31.9382C27.3762 31.7731 26.8323 31.5555 26.3125 31.2882ZM19.4156 20.6338C19.9894 22.1976 21.4175 24.2157 24.9481 25.5501C25.7219 25.8432 26.5269 26.0544 27.3394 26.2069C26.4738 29.0488 25.1969 31.3207 24.4588 32.4976C24.0356 30.8538 22.9875 27.7976 20.5944 25.0063C19.8086 24.0888 19.2798 22.9795 19.0619 21.7913C19.1669 21.4088 19.2844 21.0207 19.4156 20.6338ZM22.6631 15.9107C24.5956 14.8538 27.86 15.3676 30.3963 16.0388C31.1869 16.826 31.8562 17.7263 32.3825 18.7101C34.0769 21.8694 35.8175 23.9051 36.76 24.8876C34.7375 25.3101 29.3619 26.1788 25.1669 24.5932C22.1838 23.4669 20.3588 21.6101 20.0263 19.3651C20.0156 19.2938 20.0106 19.2219 20.0031 19.1507C20.6413 17.7644 21.5031 16.5438 22.6631 15.9107Z" fill="#FDFACD"/>
<path d="M26.6425 38.3775C29.1494 40.4468 34.0838 41.35 34.0838 41.35C34.0838 41.35 28.7838 45.4081 23.8057 42.765C19.535 40.4987 20.6294 37.3056 20.6294 37.3056C20.6294 37.3056 23.005 35.3737 26.6425 38.3775Z" fill="#FDFACD"/>
<path d="M72.248 41.384C70.712 41.384 69.352 41.104 68.168 40.544C66.984 39.968 66.056 39.176 65.384 38.168C64.728 37.16 64.4 36.008 64.4 34.712V23.504C64.4 23.136 64.52 22.84 64.76 22.616C65 22.376 65.296 22.256 65.648 22.256C66.016 22.256 66.312 22.376 66.536 22.616C66.776 22.84 66.896 23.136 66.896 23.504V34.712C66.896 35.576 67.12 36.344 67.568 37.016C68.032 37.672 68.664 38.192 69.464 38.576C70.28 38.944 71.208 39.128 72.248 39.128C73.256 39.128 74.144 38.944 74.912 38.576C75.696 38.192 76.304 37.672 76.736 37.016C77.184 36.344 77.408 35.576 77.408 34.712V23.504C77.408 23.136 77.528 22.84 77.768 22.616C78.008 22.376 78.304 22.256 78.656 22.256C79.024 22.256 79.32 22.376 79.544 22.616C79.768 22.84 79.88 23.136 79.88 23.504V34.712C79.88 36.008 79.552 37.16 78.896 38.168C78.256 39.176 77.36 39.968 76.208 40.544C75.056 41.104 73.736 41.384 72.248 41.384ZM85.3614 35.648C85.0094 35.648 84.7134 35.536 84.4734 35.312C84.2494 35.088 84.1374 34.8 84.1374 34.448C84.1374 34.08 84.2494 33.784 84.4734 33.56C84.7134 33.336 85.0094 33.224 85.3614 33.224H90.7134C91.0654 33.224 91.3534 33.336 91.5774 33.56C91.8014 33.784 91.9134 34.08 91.9134 34.448C91.9134 34.8 91.8014 35.088 91.5774 35.312C91.3534 35.536 91.0654 35.648 90.7134 35.648H85.3614ZM97.2964 41C96.9444 41 96.6484 40.88 96.4084 40.64C96.1684 40.4 96.0484 40.104 96.0484 39.752V23.504C96.0484 23.136 96.1684 22.84 96.4084 22.616C96.6484 22.376 96.9444 22.256 97.2964 22.256H102.096C103.296 22.256 104.36 22.52 105.288 23.048C106.216 23.576 106.936 24.312 107.448 25.256C107.976 26.184 108.24 27.256 108.24 28.472C108.24 29.64 107.976 30.68 107.448 31.592C106.936 32.504 106.216 33.216 105.288 33.728C104.36 34.24 103.296 34.496 102.096 34.496H98.5444V39.752C98.5444 40.104 98.4244 40.4 98.1844 40.64C97.9604 40.88 97.6644 41 97.2964 41ZM98.5444 32.192H102.096C103.184 32.192 104.08 31.848 104.784 31.16C105.488 30.456 105.84 29.56 105.84 28.472C105.84 27.704 105.68 27.032 105.36 26.456C105.04 25.864 104.6 25.4 104.04 25.064C103.48 24.728 102.832 24.56 102.096 24.56H98.5444V32.192ZM113.226 41C112.874 41 112.578 40.88 112.338 40.64C112.114 40.4 112.002 40.104 112.002 39.752V23.504C112.002 23.152 112.122 22.856 112.362 22.616C112.602 22.376 112.89 22.256 113.226 22.256C113.578 22.256 113.874 22.376 114.114 22.616C114.354 22.856 114.474 23.152 114.474 23.504V38.504H123.162C123.514 38.504 123.81 38.624 124.05 38.864C124.29 39.104 124.41 39.4 124.41 39.752C124.41 40.104 124.29 40.4 124.05 40.64C123.81 40.88 123.514 41 123.162 41H113.226ZM127.656 41C127.208 41 126.864 40.808 126.624 40.424C126.384 40.04 126.36 39.632 126.552 39.2L133.296 23.096C133.536 22.536 133.928 22.256 134.472 22.256C135.048 22.256 135.44 22.536 135.648 23.096L142.416 39.248C142.592 39.696 142.56 40.104 142.32 40.472C142.096 40.824 141.752 41 141.288 41C141.048 41 140.816 40.936 140.592 40.808C140.384 40.664 140.232 40.472 140.136 40.232L138.792 36.872H130.176L128.808 40.232C128.696 40.488 128.528 40.68 128.304 40.808C128.096 40.936 127.88 41 127.656 41ZM131.016 34.808H137.952L134.52 26.264L131.016 34.808ZM147.499 41C147.147 41 146.851 40.88 146.611 40.64C146.387 40.4 146.275 40.104 146.275 39.752V23.504C146.275 23.136 146.387 22.84 146.611 22.616C146.851 22.376 147.147 22.256 147.499 22.256C147.883 22.256 148.203 22.408 148.459 22.712L158.923 36.632V23.504C158.923 23.136 159.043 22.84 159.283 22.616C159.523 22.376 159.819 22.256 160.171 22.256C160.539 22.256 160.835 22.376 161.059 22.616C161.283 22.84 161.395 23.136 161.395 23.504V39.752C161.395 40.104 161.283 40.4 161.059 40.64C160.835 40.88 160.539 41 160.171 41C160.011 41 159.835 40.968 159.643 40.904C159.467 40.824 159.323 40.712 159.211 40.568L148.747 26.648V39.752C148.747 40.104 148.627 40.4 148.387 40.64C148.163 40.88 147.867 41 147.499 41ZM172.741 41C172.389 41 172.093 40.88 171.853 40.64C171.613 40.4 171.493 40.104 171.493 39.752V24.56H166.309C165.973 24.56 165.693 24.456 165.469 24.248C165.261 24.024 165.157 23.744 165.157 23.408C165.157 23.072 165.261 22.8 165.469 22.592C165.693 22.368 165.973 22.256 166.309 22.256H179.149C179.485 22.256 179.757 22.368 179.965 22.592C180.189 22.8 180.301 23.072 180.301 23.408C180.301 23.744 180.189 24.024 179.965 24.248C179.757 24.456 179.485 24.56 179.149 24.56H173.989V39.752C173.989 40.104 173.869 40.4 173.629 40.64C173.389 40.88 173.093 41 172.741 41Z" fill="#FDFACD"/>
</svg>
