<svg width="24" height="24" viewBox="0 0 24 24" fill="none" xmlns="http://www.w3.org/2000/svg">
<path fill-rule="evenodd" clip-rule="evenodd" d="M4.464 2.40002H23.4C23.7314 2.40002 24 2.66865 24 3.00002V3.60002C23.9913 4.59587 23.7224 5.57216 23.22 6.43202L20.4 11.388C19.7898 12.4848 18.6428 13.1748 17.388 13.2H9.912C9.65264 13.1944 9.39484 13.1582 9.144 13.092L7.944 15.6H21C21.3314 15.6 21.6 15.8686 21.6 16.2V17.4C21.6 17.7314 21.3314 18 21 18H6C5.6716 18.0076 5.36448 17.838 5.196 17.556L4.932 17.1C4.79325 16.833 4.79325 16.5151 4.932 16.248L7.164 11.808C7.04211 11.6793 6.93356 11.5386 6.84 11.388L1.704 2.40002H0.6C0.268629 2.40002 0 2.13139 0 1.80002V0.600019C0 0.268648 0.268629 1.89983e-05 0.6 1.89983e-05H1.704C2.56484 -0.00339862 3.36158 0.454497 3.792 1.20002L4.464 2.40002ZM7.19991 19.2001C5.87443 19.2001 4.79991 20.2746 4.79991 21.6001C4.79991 22.9256 5.87443 24.0001 7.19991 24.0001C8.5254 24.0001 9.59991 22.9256 9.59991 21.6001C9.59991 20.2746 8.5254 19.2001 7.19991 19.2001ZM21.5999 21.6001C21.5999 22.9256 20.5254 24.0001 19.1999 24.0001C17.8744 24.0001 16.7999 22.9256 16.7999 21.6001C16.7999 20.2746 17.8744 19.2001 19.1999 19.2001C20.5254 19.2001 21.5999 20.2746 21.5999 21.6001Z" fill="#0C3F36"/>
</svg>
