<svg width="36" height="36" viewBox="0 0 36 36" fill="none" xmlns="http://www.w3.org/2000/svg">
<circle cx="18" cy="18" r="15" fill="#F9FFFE"/>
<path d="M18 10.6216C20.4031 10.6216 20.6878 10.6308 21.6368 10.6741C22.5143 10.7141 22.9908 10.8607 23.3079 10.984C23.728 11.1472 24.0278 11.3423 24.3428 11.6572C24.6577 11.9721 24.8528 12.2719 25.016 12.692C25.1393 13.0092 25.2859 13.4857 25.3259 14.3632C25.3692 15.3122 25.3784 15.5969 25.3784 18C25.3784 20.4031 25.3692 20.6877 25.3259 21.6367C25.2859 22.5142 25.1393 22.9908 25.016 23.3079C24.8528 23.728 24.6577 24.0278 24.3428 24.3427C24.0278 24.6577 23.728 24.8527 23.3079 25.016C22.9908 25.1392 22.5143 25.2858 21.6368 25.3258C20.6879 25.3691 20.4033 25.3783 18 25.3783C15.5967 25.3783 15.3121 25.3691 14.3632 25.3258C13.4857 25.2858 13.0092 25.1392 12.6921 25.016C12.272 24.8527 11.9722 24.6577 11.6572 24.3427C11.3423 24.0278 11.1472 23.728 10.984 23.3079C10.8607 22.9908 10.7141 22.5142 10.6741 21.6367C10.6308 20.6877 10.6216 20.4031 10.6216 18C10.6216 15.5969 10.6308 15.3122 10.6741 14.3632C10.7141 13.4857 10.8607 13.0092 10.984 12.692C11.1472 12.2719 11.3423 11.9721 11.6572 11.6572C11.9722 11.3423 12.272 11.1472 12.6921 10.984C13.0092 10.8607 13.4857 10.7141 14.3632 10.6741C15.3122 10.6308 15.5969 10.6216 18 10.6216ZM18 9C15.5557 9 15.2493 9.01036 14.2893 9.05416C13.3314 9.09785 12.6771 9.25001 12.1047 9.47247C11.5128 9.70247 11.0109 10.0102 10.5105 10.5105C10.0102 11.0109 9.70247 11.5128 9.47251 12.1046C9.25001 12.6771 9.09785 13.3314 9.05416 14.2893C9.01036 15.2492 9 15.5557 9 18C9 20.4442 9.01036 20.7507 9.05416 21.7106C9.09785 22.6686 9.25001 23.3228 9.47251 23.8953C9.70247 24.4871 10.0102 24.989 10.5105 25.4894C11.0109 25.9897 11.5128 26.2975 12.1047 26.5274C12.6771 26.7499 13.3314 26.9021 14.2893 26.9458C15.2493 26.9896 15.5557 26.9999 18 26.9999C20.4443 26.9999 20.7507 26.9896 21.7107 26.9458C22.6686 26.9021 23.3229 26.7499 23.8953 26.5274C24.4872 26.2975 24.9891 25.9897 25.4895 25.4894C25.9898 24.989 26.2975 24.4871 26.5275 23.8953C26.75 23.3228 26.9021 22.6686 26.9458 21.7106C26.9896 20.7507 27 20.4442 27 18C27 15.5557 26.9896 15.2492 26.9458 14.2893C26.9021 13.3314 26.75 12.6771 26.5275 12.1046C26.2975 11.5128 25.9898 11.0109 25.4895 10.5105C24.9891 10.0102 24.4872 9.70247 23.8953 9.47247C23.3229 9.25001 22.6686 9.09785 21.7107 9.05416C20.7507 9.01036 20.4443 9 18 9Z" fill="#0C3F36"/>
<path d="M18.0042 13.3826C15.4518 13.3826 13.3826 15.4517 13.3826 18.0042C13.3826 20.5566 15.4518 22.6258 18.0042 22.6258C20.5567 22.6258 22.6258 20.5566 22.6258 18.0042C22.6258 15.4517 20.5567 13.3826 18.0042 13.3826ZM18.0042 21.0042C16.3474 21.0042 15.0042 19.661 15.0042 18.0042C15.0042 16.3473 16.3474 15.0042 18.0042 15.0042C19.6611 15.0042 21.0042 16.3473 21.0042 18.0042C21.0042 19.661 19.6611 21.0042 18.0042 21.0042Z" fill="#0C3F36"/>
<path d="M23.8881 13.1972C23.8881 13.7936 23.4045 14.2772 22.808 14.2772C22.2116 14.2772 21.7281 13.7936 21.7281 13.1972C21.7281 12.6007 22.2116 12.1172 22.808 12.1172C23.4045 12.1172 23.8881 12.6007 23.8881 13.1972Z" fill="#0C3F36"/>
</svg>
