<svg width="150" height="40" viewBox="0 0 150 40" fill="none" xmlns="http://www.w3.org/2000/svg">
<path d="M143.708 13.3464C141.087 13.3429 138.709 14.9319 135.752 16.7821C133.037 18.4773 127.485 22.763 122.419 25.2043C123.831 23.5371 127.234 19.9346 127.745 18.2441C128.284 16.472 126.556 15.7842 124.178 16.8801C121.588 18.0809 119.117 23.8519 115.459 23.8519C114.792 23.8519 114.326 23.6071 114.333 23.0475C114.348 21.357 117.83 17.9876 124.081 16.1339C125.05 15.8425 125.422 15.3726 125.427 14.9681C125.427 14.8398 125.399 13.9841 123.479 13.9841C117.306 13.9841 108.974 19.3995 107.806 23.5511C106.604 24.4605 104.44 25.8082 101.698 26.6873C104.794 23.3914 107.459 20.7414 108.856 17.99C110.469 14.7839 108.174 14.3641 105.816 15.3015C103.521 16.2132 101.908 18.7443 101.225 19.7085C100.558 20.6645 99.9845 21.8886 97.9682 23.1069C95.952 24.3253 93.8581 24.1212 95.3347 21.7429C96.6577 19.6187 99.6309 17.3907 102.19 16.3648C102.795 16.1199 103.327 15.9754 103.307 15.3621C103.276 14.3886 101.777 13.7136 99.6417 14.4061C96.7414 15.3505 95.3486 15.98 92.8903 15.98C90.9392 15.98 89.928 15.5836 89.0951 15.3237C87.9784 14.9669 87.1563 15.0905 86.7221 15.1954C86.3312 15.2957 85.7139 15.5801 85.1975 16.0057C84.788 16.3438 84.4421 16.8976 84.3599 17.2532C83.7861 19.853 80.7586 24.5165 78.5345 24.5165C77.7667 24.5165 76.9214 24.3532 77.1386 23.0242C77.4953 20.8487 80.985 17.9084 81.7915 17.3231C82.598 16.7332 84.118 16.3321 84.2266 15.6792C84.3196 15.1313 83.876 14.5192 82.4429 14.5192C77.7388 14.5192 71.4527 19.4205 70.8261 23.8228C70.0971 24.3358 69.2193 24.8371 68.2158 24.8371C66.0444 24.8371 65.4271 23.3098 65.5822 22.0973C71.296 18.222 82.1343 9.58178 82.4615 3.43186C82.5391 1.96288 81.5868 1.22839 79.9862 1.22839C75.9536 1.22839 70.3019 5.65866 66.7873 9.07463C62.4632 13.2811 59.8017 18.3607 58.8618 22.2116C55.6978 24.2751 54.4136 24.4127 53.0364 24.4127C51.1225 24.4127 50.454 23.3716 50.5145 22.5532C55.8498 18.9087 65.1247 10.2253 65.3108 5.9338C65.3666 4.66301 64.4112 4.06376 62.7005 4.06376C59.0635 4.06376 53.9127 6.94927 50.2089 10.7488C46.5098 14.5495 44.1105 19.0194 43.4311 23.072C40.6626 24.942 38.5921 25.3221 36.886 25.3221C35.8546 25.3221 35.0977 24.7765 34.9163 24.5479C37.3668 23.4847 42.9503 20.8172 42.9503 16.8416C42.9503 14.8666 41.1776 13.9852 39.4141 13.9852C34.9287 13.9852 27.8748 18.187 27.9214 23.986C27.9214 24.0886 27.9431 24.4454 27.9679 24.5748C25.9361 25.0994 24.5371 25.6357 24.8597 26.7339C25.1544 27.7296 26.7984 27.6783 28.9388 27.1105C29.432 27.7984 31.5289 28.9328 34.4913 28.9328C38.5021 28.9328 41.5638 27.5022 43.9833 25.9481C44.9992 27.7377 47.504 28.6763 50.1252 28.6763C53.3047 28.6763 56.4532 27.0557 58.9347 25.5867C59.2232 26.959 61.0797 29.096 64.2918 29.096C67.2232 29.096 69.4628 27.8135 71.2325 26.4262C71.6977 27.8252 73.4038 28.9328 75.6279 28.9328C83.0463 28.9328 87.206 21.0399 88.1645 18.2068C88.2886 17.8454 88.7477 17.7638 89.0641 17.8489C90.4444 18.2103 91.1207 18.3899 92.864 18.2406C90.0412 19.9078 87.5534 22.7525 87.5534 24.8313C87.5534 26.9065 89.9466 27.8707 91.6945 27.8707C93.4471 27.8707 95.7643 27.0196 97.2889 25.947C96.8856 26.5579 96.3428 27.4917 95.4743 28.1505C93.8767 28.4804 89.1928 29.7512 86.2149 31.1117C83.3921 32.4059 80.6624 34.4624 80.6624 36.8291C80.6624 38.0953 82.0428 39.5806 85.289 39.5806C90.7453 39.5806 94.5638 36.8991 99.7131 29.8573C103.978 28.513 106.537 27.2574 108.212 26.1906C108.948 27.1536 110.362 27.6013 111.78 27.6013C113.874 27.6013 115.13 27.1467 116.82 26.2338C116.588 26.6652 116.215 27.3134 115.642 27.8893C112.592 28.843 108.931 30.1044 107.055 30.9555C102.054 33.222 100.945 35.2541 100.945 36.8548C100.945 37.8341 102.061 39.5363 105.432 39.5363C112.721 39.5363 117.234 32.7218 120.175 28.8686C122.331 28.0094 125.411 26.4157 128.577 24.5899C128.468 24.8814 128.417 25.1845 128.417 25.5284C128.417 27.2388 130.48 28.8476 133.861 28.8476C140.541 28.8476 142.619 25.1472 142.537 21.153C142.506 19.8472 142.25 18.8072 142.227 18.3432C142.165 17.1237 142.705 16.4662 144.181 16.4662C145.67 16.4662 146.678 16.268 146.678 15.312C146.678 13.9887 145.422 13.3883 143.716 13.3883L143.708 13.3464ZM76.4034 6.29988C76.5942 6.29988 76.6733 6.42813 76.6671 6.62632C76.6097 8.20024 71.2231 14.56 66.2399 18.2616C69.2394 11.6337 75.22 6.29988 76.3988 6.29988H76.4034ZM33.8058 22.2535C34.0229 19.4286 37.0008 17.252 38.1764 17.252C38.6107 17.252 38.8123 17.4385 38.8123 17.8268C38.8123 18.8341 37.0132 20.9396 33.8135 22.2535H33.8058ZM59.1255 8.63627C59.3504 8.63627 59.4466 8.76801 59.4388 8.98253C59.4 10.1461 55.5226 15.488 50.5455 19.1896C53.1604 13.1855 57.4163 8.6386 59.1224 8.6386L59.1255 8.63627ZM86.3529 35.9897C85.9714 35.9897 85.7791 35.8032 85.7791 35.528C85.7791 33.8107 90.8508 31.781 93.5107 31.0476C92.363 32.4443 88.1505 35.9909 86.3483 35.9909L86.3529 35.9897ZM106.651 36.0841C106.278 36.0841 106.139 35.9163 106.139 35.6411C106.139 34.1255 110.736 31.7775 113.393 31.0453C112.012 32.8407 108.174 36.0818 106.646 36.0818L106.651 36.0841ZM134.354 25.1694C134.035 25.1694 133.548 25.1111 133.548 24.3031C133.548 23.7155 133.175 23.065 131.814 23.065C131.628 23.065 131.426 23.0766 131.196 23.1058C134.112 21.3686 136.392 19.4566 138.517 18.1625C138.083 22.1148 136.826 25.1694 134.345 25.1694" fill="#F9FFFE"/>
<path d="M131.792 12.6142C131.694 13.3079 130.666 13.6192 130.576 14.2395C130.525 14.6009 130.865 14.8399 131.463 14.834C132.992 14.8224 137.093 13.0433 137.45 10.2755C137.63 8.88 136.47 7.66866 134.446 7.66866C132.398 7.66866 130.547 9.112 130.374 10.3245C130.208 11.5102 131.887 11.9392 131.792 12.6142ZM25.2134 32.1331C23.8997 32.0818 23.2839 30.9031 23.2839 29.4749C23.2839 27.9045 24.6333 24.5025 25.1684 22.8925C25.7112 21.2684 25.9439 18.6418 23.9896 17.1355C31.4188 14.8888 42.4153 7.2373 43.8267 5.56662C45.2381 3.89361 45.5172 1.76591 43.563 0.702644C41.6243 -0.360622 38.4448 1.02675 36.5681 3.05768C31.4033 8.65615 28.2859 11.3889 24.7651 13.6903C22.0199 15.4858 20.6861 15.5149 19.3677 15.6525C19.3677 15.6525 24.4394 9.41163 26.3316 7.53809C28.6038 5.2973 25.8043 4.46021 23.0901 5.87557C22.5395 6.16354 18.2479 8.39383 13.049 10.4108C3.78969 14.0016 1.56093 15.6571 1.56093 17.8117C1.56093 18.7677 2.44499 19.9708 4.30616 19.9708C7.93545 19.9708 11.5244 15.0952 13.2817 13.8815C13.9641 13.4035 15.5508 12.3659 16.1665 12.3659C16.3681 12.3659 16.5077 12.4592 16.5077 12.7507C16.5077 13.6833 14.099 16.3298 10.3658 19.3611C4.94982 23.7564 0.51712 25.5285 0.51712 28.3382C0.51712 30.1686 2.34728 31.1596 4.32633 31.1596C8.49846 31.1596 11.2902 26.9742 12.9591 24.8989C13.626 24.0712 17.3065 18.9146 18.082 17.7988C18.8885 18.1218 19.3848 18.7945 19.1211 20.1609C18.6248 22.6208 15.709 25.6008 15.709 29.7559C15.709 33.1486 19.8811 34.213 21.5562 34.2153C23.104 34.2153 25.1513 33.7665 25.66 32.6018C25.7221 32.4269 25.6445 32.1319 25.232 32.1121L25.2134 32.1331ZM148.563 12.8404C149.431 12.8404 149.99 13.2601 149.99 13.9165C149.99 14.5694 149.431 14.9891 148.563 14.9891C147.686 14.9891 147.131 14.5694 147.131 13.9165C147.131 13.2566 147.683 12.8346 148.561 12.8346L148.563 12.8404ZM148.561 14.7233C149.22 14.7233 149.638 14.405 149.638 13.9072C149.638 13.4094 149.219 13.0958 148.561 13.0958C147.897 13.0958 147.48 13.4105 147.48 13.9049C147.48 14.3992 147.899 14.721 148.557 14.721L148.561 14.7233ZM148.65 13.3569C148.871 13.3569 149.121 13.4385 149.121 13.681C149.121 13.8419 148.982 13.9375 148.826 13.9841C148.926 14.0891 149.003 14.2383 149.121 14.2383H149.203C149.219 14.25 149.234 14.2733 149.234 14.3199C149.234 14.3945 149.161 14.4481 149.017 14.4481C148.738 14.4481 148.707 14.1987 148.521 14.0168H148.355V14.4248C148.324 14.4412 148.246 14.4481 148.184 14.4481C148.091 14.4481 148.014 14.4365 148.014 14.3316V13.3709C148.045 13.3592 148.107 13.3546 148.181 13.3546H148.647L148.65 13.3569ZM148.36 13.5551V13.8232H148.572C148.721 13.8232 148.805 13.7708 148.805 13.6833C148.805 13.6017 148.727 13.5551 148.603 13.5551H148.361H148.36Z" fill="#F9FFFE"/>
</svg>
