<svg width="38" height="27" viewBox="0 0 38 27" fill="none" xmlns="http://www.w3.org/2000/svg">
<path d="M14.0598 11.4C16.2598 12.8667 17.3598 14.9333 17.3598 17.6C17.3598 20.2 16.5598 22.2667 14.9598 23.8C13.4264 25.3333 11.4598 26.1 9.05977 26.1C6.72643 26.1 4.75977 25.3667 3.15977 23.9C1.62643 22.4333 0.859766 20.5333 0.859766 18.2C0.859766 15.8667 1.5931 13.5667 3.05977 11.3L10.3598 0.699999H18.5598L14.0598 11.4ZM32.5598 11.4C34.7598 12.8667 35.8598 14.9333 35.8598 17.6C35.8598 20.2 35.0598 22.2667 33.4598 23.8C31.9264 25.3333 29.9598 26.1 27.5598 26.1C25.2264 26.1 23.2598 25.3667 21.6598 23.9C20.1264 22.4333 19.3598 20.5333 19.3598 18.2C19.3598 15.8667 20.0931 13.5667 21.5598 11.3L28.8598 0.699999H37.0598L32.5598 11.4Z" fill="#0C3F36"/>
</svg>
