<svg width="19" height="12" viewBox="0 0 19 12" fill="none" xmlns="http://www.w3.org/2000/svg">
<path fill-rule="evenodd" clip-rule="evenodd" d="M6.78106 11.0311C6.71139 11.101 6.62863 11.1564 6.53751 11.1942C6.44639 11.232 6.34871 11.2515 6.25006 11.2515C6.15141 11.2515 6.05373 11.232 5.96261 11.1942C5.87149 11.1564 5.78873 11.101 5.71906 11.0311L1.21906 6.53113C1.14921 6.46146 1.0938 6.37869 1.05599 6.28758C1.01818 6.19646 0.998718 6.09878 0.998718 6.00012C0.998718 5.90147 1.01818 5.80379 1.05599 5.71268C1.0938 5.62156 1.14921 5.53879 1.21906 5.46912L5.71906 0.969125C5.85989 0.828295 6.0509 0.749178 6.25006 0.749178C6.44922 0.749178 6.64023 0.828295 6.78106 0.969125C6.92189 1.10995 7.00101 1.30096 7.00101 1.50012C7.00101 1.69929 6.92189 1.8903 6.78106 2.03113L2.81056 6.00012L6.78106 9.96912C6.8509 10.0388 6.90632 10.1216 6.94413 10.2127C6.98194 10.3038 7.0014 10.4015 7.0014 10.5001C7.0014 10.5988 6.98194 10.6965 6.94413 10.7876C6.90632 10.8787 6.8509 10.9615 6.78106 11.0311Z" fill="#FBC76D"/>
<path fill-rule="evenodd" clip-rule="evenodd" d="M19 6C19 6.19891 18.921 6.38968 18.7803 6.53033C18.6397 6.67098 18.4489 6.75 18.25 6.75L2.5 6.75C2.30109 6.75 2.11032 6.67098 1.96967 6.53033C1.82902 6.38968 1.75 6.19891 1.75 6C1.75 5.80109 1.82902 5.61032 1.96967 5.46967C2.11032 5.32902 2.30109 5.25 2.5 5.25L18.25 5.25C18.4489 5.25 18.6397 5.32902 18.7803 5.46967C18.921 5.61032 19 5.80109 19 6Z" fill="#FBC76D"/>
</svg>
