<svg width="36" height="36" viewBox="0 0 36 36" fill="none" xmlns="http://www.w3.org/2000/svg">
<circle cx="18" cy="18" r="15" fill="#F9FFFE"/>
<path fill-rule="evenodd" clip-rule="evenodd" d="M14.0811 10.7129C14.0811 11.6467 13.37 12.4025 12.2581 12.4025C11.1895 12.4025 10.4785 11.6467 10.5005 10.7129C10.4785 9.73371 11.1895 9 12.2794 9C13.37 9 14.0597 9.73371 14.0811 10.7129ZM10.5899 24.6143V13.7372H13.9703V24.6136H10.5899V24.6143Z" fill="#0C3F36"/>
<path fill-rule="evenodd" clip-rule="evenodd" d="M16.6798 17.2083C16.6798 15.8516 16.6351 14.695 16.5904 13.7385H19.5267L19.6827 15.2286H19.7495C20.1944 14.5389 21.3063 13.4944 23.1079 13.4944C25.3318 13.4944 27 14.9625 27 18.1642V24.6156H23.6195V18.5877C23.6195 17.1856 23.1306 16.2298 21.9073 16.2298C20.9728 16.2298 20.4172 16.8748 20.1951 17.4971C20.1057 17.7199 20.0617 18.0308 20.0617 18.3429V24.6156H16.6812V17.2083H16.6798Z" fill="#0C3F36"/>
</svg>
