<svg width="177" height="37" viewBox="0 0 177 37" fill="none" xmlns="http://www.w3.org/2000/svg">
<path d="M96.9364 34.452C96.3364 34.452 95.9524 34.128 95.7844 33.48C95.5684 32.64 95.4604 31.608 95.4604 30.384L95.4964 29.412C95.7844 24.828 96.3364 20.268 97.1524 15.732C97.2244 15.54 97.2604 15.312 97.2604 15.048L97.2244 14.724C96.8164 15.204 96.4684 15.696 96.1804 16.2L96.0004 16.488C95.0644 18.024 94.1644 19.572 93.3004 21.132C92.9404 21.828 92.5204 22.56 92.0404 23.328C91.6564 23.856 91.2124 24.12 90.7084 24.12H90.4564C89.2564 23.928 88.6564 22.752 88.6564 20.592C88.6564 20.4 88.6204 20.304 88.5484 20.304C88.4764 20.304 88.4284 20.352 88.4044 20.448C87.2524 24.072 86.6764 27.096 86.6764 29.52C86.6764 30.096 86.8204 30.516 87.1084 30.78C87.2524 30.876 87.3244 30.996 87.3244 31.14C87.3244 31.332 87.1924 31.512 86.9284 31.68C86.6884 31.848 86.4244 31.932 86.1364 31.932C85.7764 31.932 85.4644 31.812 85.2004 31.572C84.9364 31.332 84.7804 31.032 84.7324 30.672C84.6844 30.192 84.6604 29.7 84.6604 29.196C84.6604 28.62 84.6964 28.044 84.7684 27.468C85.4644 22.548 87.0964 17.448 89.6644 12.168C89.9044 11.664 90.1684 11.412 90.4564 11.412L90.7804 11.448C91.3564 11.616 91.6444 11.976 91.6444 12.528C91.6444 12.792 91.5364 13.356 91.3204 14.22C90.8884 16.428 90.6724 18.276 90.6724 19.764C90.6724 21.012 90.7204 21.636 90.8164 21.636C90.8644 21.636 90.9364 21.564 91.0324 21.42L92.3644 19.044C94.1884 15.828 96.3964 12.396 98.9884 8.748L99.0244 8.676C99.2884 8.316 99.5524 8.136 99.8164 8.136C100.32 8.136 100.716 8.412 101.004 8.964L101.04 9.288C101.04 9.456 101.004 9.66 100.932 9.9L100.896 10.044C99.3844 14.22 98.3044 19.788 97.6564 26.748C97.4884 28.26 97.4044 29.796 97.4044 31.356C97.4044 32.076 97.4644 32.76 97.5844 33.408L97.6204 33.444C97.6684 33.636 97.6924 33.804 97.6924 33.948C97.6924 34.284 97.4404 34.452 96.9364 34.452ZM106.334 19.872C107.582 19.872 108.842 19.824 110.114 19.728C110.234 17.736 110.69 14.352 111.482 9.576C109.274 11.832 107.15 15.264 105.11 19.872H106.334ZM111.554 32.436C111.026 32.436 110.666 32.1 110.474 31.428C110.09 29.964 109.898 27.516 109.898 24.084L109.934 21.78C109.79 21.684 109.562 21.636 109.25 21.636C109.034 21.636 108.29 21.672 107.018 21.744C105.77 21.792 104.942 21.816 104.534 21.816C104.39 21.816 104.27 21.852 104.174 21.924L103.814 22.932C102.734 25.716 102.026 27.924 101.69 29.556C101.57 30.012 101.45 30.288 101.33 30.384C101.234 30.504 101.102 30.564 100.934 30.564C100.142 30.564 99.7464 30.18 99.7464 29.412C99.7944 28.668 100.478 26.22 101.798 22.068L101.834 21.96C101.834 21.84 101.726 21.78 101.51 21.78C100.79 21.78 100.43 21.48 100.43 20.88C100.43 20.712 100.454 20.52 100.502 20.304C100.55 19.968 101.138 19.8 102.266 19.8C102.65 19.776 102.962 19.5 103.202 18.972C105.41 14.22 107.474 10.86 109.394 8.892C110.21 8.028 110.954 7.596 111.626 7.596C112.418 7.596 112.982 8.064 113.318 9C113.438 9.408 113.498 9.804 113.498 10.188C113.474 10.62 113.306 12.168 112.994 14.832C112.298 19.656 111.95 23.568 111.95 26.568C111.95 28.896 112.154 30.648 112.562 31.824C112.538 32.232 112.202 32.436 111.554 32.436ZM112.206 32.616C111.942 32.616 111.69 32.52 111.45 32.328C111.21 32.16 111.09 31.896 111.09 31.536C111.138 31.056 111.306 30.516 111.594 29.916L111.63 29.844C112.254 28.548 112.95 27.3 113.718 26.1L114.618 24.552C114.978 23.808 115.422 23.076 115.95 22.356C116.19 21.972 116.31 21.636 116.31 21.348C116.31 21.108 116.238 20.844 116.094 20.556C115.782 19.884 115.422 18.984 115.014 17.856C114.63 16.704 114.282 15.552 113.97 14.4C113.682 13.224 113.502 12.252 113.43 11.484C113.43 10.908 113.586 10.452 113.898 10.116C114.21 9.78 114.606 9.612 115.086 9.612C115.734 9.612 116.058 9.828 116.058 10.26C116.058 10.38 116.034 10.512 115.986 10.656C115.914 10.944 115.878 11.268 115.878 11.628C115.878 12.108 115.962 12.78 116.13 13.644C116.514 15.636 117.138 17.58 118.002 19.476C118.338 19.068 118.65 18.66 118.938 18.252C120.066 16.716 121.146 15.372 122.178 14.22C122.874 13.428 123.666 12.732 124.554 12.132C124.962 11.868 125.37 11.736 125.778 11.736C126.042 11.736 126.318 11.832 126.606 12.024C127.062 12.288 127.29 12.672 127.29 13.176C127.29 13.464 127.158 13.608 126.894 13.608L126.318 13.536C125.79 13.536 124.782 14.304 123.294 15.84C122.214 16.944 121.158 18.264 120.126 19.8L119.226 21.024C119.058 21.216 118.974 21.408 118.974 21.6C118.974 21.696 119.01 21.816 119.082 21.96C119.178 22.104 119.262 22.26 119.334 22.428C119.742 23.22 120.162 24 120.594 24.768C121.578 26.496 122.622 27.792 123.726 28.656L123.798 28.728C124.062 28.92 124.194 29.1 124.194 29.268L124.158 29.484C123.942 29.868 123.618 30.06 123.186 30.06C122.994 30.06 122.742 29.952 122.43 29.736C122.022 29.544 121.53 29.1 120.954 28.404C120.066 27.396 119.154 26.016 118.218 24.264C117.954 23.712 117.774 23.436 117.678 23.436C117.606 23.436 117.51 23.532 117.39 23.724C115.686 26.316 114.39 28.476 113.502 30.204L113.322 30.492C113.01 31.116 112.854 31.608 112.854 31.968V32.148C112.854 32.46 112.638 32.616 112.206 32.616ZM126.063 31.176C125.199 31.176 124.635 30.744 124.371 29.88C124.107 28.896 123.975 27.36 123.975 25.272C123.975 21.048 124.599 17.136 125.847 13.536C125.991 13.08 126.171 12.636 126.387 12.204C127.011 11.028 127.659 10.44 128.331 10.44C129.147 10.44 129.687 10.812 129.951 11.556L129.987 11.844C129.987 12.204 129.831 12.384 129.519 12.384H129.447C129.087 12.384 128.823 12.528 128.655 12.816C128.295 13.416 127.899 14.496 127.467 16.056C126.723 18.792 126.327 22.068 126.279 25.884C126.279 26.58 126.327 26.928 126.423 26.928C126.519 26.928 126.651 26.688 126.819 26.208C128.235 22.296 129.699 19.212 131.211 16.956C131.499 16.5 131.871 16.272 132.327 16.272C133.047 16.272 133.575 16.608 133.911 17.28C134.079 17.952 134.223 19.056 134.343 20.592C134.583 23.232 134.763 24.552 134.883 24.552C134.979 24.552 135.075 24.276 135.171 23.724C135.651 21.612 136.143 19.512 136.647 17.424C137.583 13.56 138.351 10.932 138.951 9.54C139.143 9.156 139.419 8.964 139.779 8.964C139.971 8.964 140.175 9.048 140.391 9.216C140.607 9.36 140.715 9.552 140.715 9.792L140.679 10.08C138.759 15.768 137.187 22.368 135.963 29.88C135.915 30.24 135.807 30.504 135.639 30.672C135.471 30.84 135.207 30.924 134.847 30.924C134.199 30.924 133.791 30.6 133.623 29.952C133.023 27.24 132.567 24.252 132.255 20.988L132.075 19.368C131.643 20.04 131.319 20.64 131.103 21.168L130.887 21.636C130.383 22.716 129.927 23.808 129.519 24.912C128.775 26.856 128.283 28.176 128.043 28.872C128.043 28.968 127.851 29.424 127.467 30.24C127.107 30.864 126.639 31.176 126.063 31.176ZM146.185 31.104C145.177 31.104 144.181 30.816 143.197 30.24C141.421 29.256 140.533 27.72 140.533 25.632L140.569 24.552L140.605 24.156C140.605 23.964 140.569 23.772 140.497 23.58C140.449 23.364 140.233 23.208 139.849 23.112C139.489 22.992 139.309 22.8 139.309 22.536C139.309 22.296 139.465 22.056 139.777 21.816L139.849 21.744C140.377 21.6 140.737 21.348 140.929 20.988C141.217 20.436 141.361 19.98 141.361 19.62C141.889 17.532 142.609 15.492 143.521 13.5L143.557 13.392C143.653 13.248 143.701 13.104 143.701 12.96V12.852C143.533 12.876 143.341 12.996 143.125 13.212C142.957 13.548 142.693 13.716 142.333 13.716C142.141 13.716 141.937 13.62 141.721 13.428C141.505 13.212 141.397 12.972 141.397 12.708C141.397 12.516 141.481 12.3 141.649 12.06C142.561 11.028 144.397 10.14 147.157 9.396C148.933 8.94 150.433 8.712 151.657 8.712C152.713 8.712 153.445 9.084 153.853 9.828C153.997 10.116 154.069 10.368 154.069 10.584C154.069 10.968 153.877 11.16 153.493 11.16C153.253 11.16 153.025 11.016 152.809 10.728C152.617 10.44 152.365 10.296 152.053 10.296C151.189 10.296 149.881 10.536 148.129 11.016C147.913 11.088 147.673 11.16 147.409 11.232C147.169 11.304 146.989 11.472 146.869 11.736C145.381 14.352 144.289 17.1 143.593 19.98L143.629 20.232C144.085 20.232 144.529 20.172 144.961 20.052C146.065 19.836 146.905 19.728 147.481 19.728L148.309 19.764C149.149 19.812 149.761 20.076 150.145 20.556C150.313 20.724 150.397 20.868 150.397 20.988C150.397 21.084 150.349 21.192 150.253 21.312C150.181 21.432 150.061 21.492 149.893 21.492L149.677 21.456C149.125 21.288 148.561 21.204 147.985 21.204C147.169 21.204 146.077 21.408 144.709 21.816C143.869 22.008 143.389 22.152 143.269 22.248C143.149 22.344 143.041 22.668 142.945 23.22C142.801 24.372 142.729 25.236 142.729 25.812C142.729 27.06 143.029 28.02 143.629 28.692C144.229 29.364 145.021 29.7 146.005 29.7C146.509 29.7 147.025 29.58 147.553 29.34C147.697 29.268 147.829 29.196 147.949 29.124C148.069 29.076 148.213 29.016 148.381 28.944C148.549 28.896 148.717 28.872 148.885 28.872C149.197 28.872 149.437 28.944 149.605 29.088C149.797 29.232 149.893 29.4 149.893 29.592C149.893 29.76 149.737 29.94 149.425 30.132L149.353 30.168C148.273 30.792 147.217 31.104 146.185 31.104ZM152.144 33.264C151.664 33.264 151.268 33.024 150.956 32.544C150.836 32.328 150.776 32.1 150.776 31.86C150.776 31.404 151.256 30.912 152.216 30.384C152.48 30.216 152.612 29.988 152.612 29.7C152.54 29.1 152.504 28.5 152.504 27.9C152.504 26.22 152.84 24.144 153.512 21.672C154.928 16.056 156.548 11.832 158.372 9C159.188 7.752 159.884 7.128 160.46 7.128C160.532 7.128 160.676 7.164 160.892 7.236C161.132 7.284 161.336 7.572 161.504 8.1C161.552 8.196 161.576 8.292 161.576 8.388C161.576 8.676 161.468 8.892 161.252 9.036C160.748 9.372 160.244 10.056 159.74 11.088C158.468 13.176 157.328 15.852 156.32 19.116C155.192 22.356 154.52 25.332 154.304 28.044L154.268 28.44C154.268 28.704 154.304 28.932 154.376 29.124L155.78 28.548C157.724 27.732 159.308 27.12 160.532 26.712C161.78 26.28 162.788 26.064 163.556 26.064C164.612 26.064 165.284 26.496 165.572 27.36C165.644 27.552 165.692 27.72 165.716 27.864C165.716 28.056 165.644 28.2 165.5 28.296C165.38 28.392 165.284 28.44 165.212 28.44C165.044 28.44 164.876 28.356 164.708 28.188C164.54 28.044 164.384 27.96 164.24 27.936L163.7 27.972C162.98 28.092 162.284 28.272 161.612 28.512C158.9 29.424 156.296 30.576 153.8 31.968L153.548 32.076C152.996 32.316 152.648 32.64 152.504 33.048C152.456 33.12 152.336 33.192 152.144 33.264ZM162.906 33.264C162.426 33.264 162.03 33.024 161.718 32.544C161.598 32.328 161.538 32.1 161.538 31.86C161.538 31.404 162.018 30.912 162.978 30.384C163.242 30.216 163.374 29.988 163.374 29.7C163.302 29.1 163.266 28.5 163.266 27.9C163.266 26.22 163.602 24.144 164.274 21.672C165.69 16.056 167.31 11.832 169.134 9C169.95 7.752 170.646 7.128 171.222 7.128C171.294 7.128 171.438 7.164 171.654 7.236C171.894 7.284 172.098 7.572 172.266 8.1C172.314 8.196 172.338 8.292 172.338 8.388C172.338 8.676 172.23 8.892 172.014 9.036C171.51 9.372 171.006 10.056 170.502 11.088C169.23 13.176 168.09 15.852 167.082 19.116C165.954 22.356 165.282 25.332 165.066 28.044L165.03 28.44C165.03 28.704 165.066 28.932 165.138 29.124L166.542 28.548C168.486 27.732 170.07 27.12 171.294 26.712C172.542 26.28 173.55 26.064 174.318 26.064C175.374 26.064 176.046 26.496 176.334 27.36C176.406 27.552 176.454 27.72 176.478 27.864C176.478 28.056 176.406 28.2 176.262 28.296C176.142 28.392 176.046 28.44 175.974 28.44C175.806 28.44 175.638 28.356 175.47 28.188C175.302 28.044 175.146 27.96 175.002 27.936L174.462 27.972C173.742 28.092 173.046 28.272 172.374 28.512C169.662 29.424 167.058 30.576 164.562 31.968L164.31 32.076C163.758 32.316 163.41 32.64 163.266 33.048C163.218 33.12 163.098 33.192 162.906 33.264Z" fill="white"/>
<path d="M72.6666 33.0833L72.6666 3.91667L66.75 1M72.6666 33.0833L66.75 36L43.0833 24.3333M72.6666 33.0833L49 21.4167M66.75 1L66.75 24.3333L54.9166 18.5L60.8333 15.5833L37.1666 27.25L13.5 15.5833L19.4166 18.5L7.58329 24.3333L7.58329 0.999997M66.75 1L37.1666 15.5833L7.58329 0.999997M60.8333 21.4167L60.8333 9.75L37.1666 21.4167L13.5 9.75L13.5 21.4167M1.66663 33.0833L1.66663 3.91666L7.58329 0.999997M1.66663 33.0833L7.58329 36L31.25 24.3333M1.66663 33.0833L25.3333 21.4167" stroke="#F9FFFE" stroke-width="2" stroke-linejoin="round"/>
</svg>
