<svg width="165" height="28" viewBox="0 0 165 28" fill="none" xmlns="http://www.w3.org/2000/svg">
<path d="M58.5077 16.0054L57.5277 18.0925H57.446C57.2827 17.6219 56.9833 16.9057 56.4933 16.0463L51.2395 6.12207H46.0946V21.9394H49.4973V12.1789L49.4701 10.0099C49.4429 9.5802 49.3884 9.25281 49.3612 9.00726H49.4429C49.6062 9.62113 49.7967 10.0713 49.9329 10.3578L56.2483 21.8985H58.6438L64.9047 10.2555C65.0409 9.98945 65.177 9.45743 65.3131 9.00726H65.3947L65.2314 11.8515V21.8781H68.8519V6.08115H63.8975L58.5077 16.0054ZM72.2818 10.5419H75.8206V21.8781H72.2818V10.5419ZM74.0784 5.75375C73.4796 5.75375 72.9896 5.91745 72.5812 6.20392C72.1729 6.49039 71.9551 6.85872 71.9551 7.30889C71.9474 7.72113 72.1754 8.11603 72.5812 8.39339C72.9896 8.67986 73.4796 8.8231 74.0784 8.8231C74.6773 8.8231 75.1945 8.6594 75.5756 8.39339C75.9814 8.11603 76.2094 7.72113 76.2017 7.30889C76.2017 6.87918 75.9839 6.51086 75.5756 6.20392C75.2217 5.91745 74.7045 5.75375 74.0784 5.75375ZM88.3698 10.4396C87.7165 10.3373 87.0359 10.2759 86.3826 10.2759C84.7765 10.2759 83.3065 10.5419 82.0816 11.074C80.8566 11.606 79.8766 12.3426 79.2505 13.2634C78.5972 14.2047 78.2706 15.2892 78.2706 16.5374C78.2706 17.6219 78.5972 18.5836 79.2233 19.4635C79.8494 20.3229 80.7205 21.0186 81.891 21.4893C83.0071 21.9599 84.3138 22.2055 85.7837 22.2055C87.4715 22.2055 88.9142 21.9394 90.0575 21.4483L90.0847 21.4279V18.9724L89.9486 19.0543C89.4314 19.3407 88.8325 19.5863 88.2337 19.7295C87.6076 19.8932 87.0359 19.9751 86.5459 19.9751C85.1304 19.9751 84.0143 19.6681 83.2249 18.9929C82.4082 18.3381 81.9999 17.4377 81.9999 16.3123C81.9999 15.146 82.4082 14.2252 83.2521 13.5499C84.096 12.8746 85.2121 12.5268 86.5732 12.5268C87.7165 12.5268 88.887 12.8133 89.9486 13.3862L90.0847 13.468V10.8693L90.0575 10.8489C89.5947 10.7056 89.0775 10.5419 88.3698 10.4396ZM100.048 10.3578C99.1768 10.3578 98.3601 10.5624 97.6523 10.9921C97.0535 11.3604 96.6451 11.8924 96.2913 12.5268H96.264V10.5419H92.7252V21.8781H96.264V16.0872C96.264 15.105 96.5363 14.2865 97.1351 13.6931C97.734 13.0793 98.4962 12.7723 99.4217 12.7723C99.7484 12.7723 100.075 12.8337 100.483 12.8746C100.864 12.9565 101.137 13.0383 101.327 13.1406L101.463 13.2225V10.5624L101.382 10.5419C101.137 10.4192 100.647 10.3578 100.048 10.3578ZM109.684 10.2964C107.207 10.2964 105.22 10.8489 103.832 11.9334C102.416 13.0179 101.736 14.5116 101.736 16.3942C101.736 18.1539 102.443 19.5863 103.804 20.6299C105.166 21.653 107.017 22.185 109.33 22.185C111.753 22.185 113.686 21.6325 115.074 20.5275C116.49 19.4226 117.17 17.9493 117.17 16.1281C117.17 14.3275 116.517 12.8951 115.183 11.8515C113.904 10.8079 112.025 10.2964 109.684 10.2964ZM112.515 19.0133C111.862 19.6477 110.828 19.9546 109.548 19.9546C108.269 19.9546 107.234 19.6477 106.499 18.9724C105.764 18.3381 105.411 17.4173 105.411 16.2509C105.411 15.0436 105.792 14.1228 106.499 13.468C107.234 12.8133 108.242 12.4859 109.521 12.4859C110.773 12.4859 111.753 12.7928 112.461 13.4271C113.169 14.0615 113.55 14.9823 113.55 16.1895C113.495 17.4173 113.196 18.379 112.515 19.0133ZM125.065 15.2483C123.948 14.9004 123.241 14.6344 122.914 14.4093C122.642 14.2047 122.506 13.9182 122.506 13.5499C122.506 13.243 122.669 12.936 123.077 12.7314C123.486 12.5268 123.948 12.4245 124.629 12.4245C125.228 12.4245 125.854 12.5063 126.453 12.6291C127.052 12.7519 127.596 12.936 128.032 13.1816L128.168 13.2634V10.767L128.086 10.7466C127.678 10.6238 127.133 10.501 126.48 10.3987C125.827 10.3168 125.228 10.2759 124.738 10.2759C123.05 10.2759 121.662 10.5829 120.573 11.2581C119.484 11.8924 118.967 12.7519 118.967 13.7545C118.967 14.2865 119.076 14.7572 119.321 15.146C119.566 15.5347 119.92 15.9031 120.41 16.21C120.9 16.4965 121.607 16.8239 122.587 17.1308C123.404 17.3968 124.03 17.6014 124.411 17.7651C124.792 17.9288 125.037 18.113 125.228 18.2562C125.364 18.4199 125.446 18.6245 125.446 18.8906C125.446 19.6477 124.683 20.016 123.132 20.016C122.533 20.016 121.907 19.9341 121.172 19.75C120.437 19.5658 119.756 19.2998 119.185 18.9929L119.049 18.911V21.5097L119.13 21.5302C119.647 21.7144 120.274 21.8371 121.036 21.9804C121.798 22.0827 122.478 22.1645 123.077 22.1645C124.901 22.1645 126.398 21.8576 127.46 21.1823C128.549 20.5275 129.121 19.6886 129.121 18.6041C129.121 17.847 128.848 17.1717 128.249 16.6602C127.46 16.1691 126.48 15.6575 125.065 15.2483ZM138.458 10.2964C135.98 10.2964 133.993 10.8489 132.605 11.9334C131.217 13.0179 130.509 14.5116 130.509 16.3942C130.509 18.1539 131.217 19.5863 132.578 20.6299C133.939 21.653 135.79 22.185 138.104 22.185C140.526 22.185 142.459 21.6325 143.847 20.5275C145.263 19.4226 145.943 17.9493 145.943 16.1281C145.943 14.3275 145.29 12.8951 143.956 11.8515C142.677 10.8079 140.799 10.2964 138.458 10.2964ZM141.261 19.0133C140.608 19.6477 139.574 19.9546 138.294 19.9546C136.988 19.9546 135.98 19.6477 135.245 18.9724C134.51 18.3381 134.157 17.4173 134.157 16.2509C134.157 15.0436 134.538 14.1228 135.245 13.468C135.98 12.8133 136.988 12.4859 138.267 12.4859C139.492 12.4859 140.499 12.7928 141.207 13.4271C141.915 14.0615 142.296 14.9823 142.296 16.1895C142.296 17.4173 141.942 18.379 141.261 19.0133ZM164.863 12.7314V10.5419H161.296V7.18611L161.188 7.20657L157.812 7.96368L157.73 7.98414V10.5419H152.395V9.10957C152.395 8.45478 152.613 7.94322 152.994 7.61582C153.375 7.28842 153.947 7.12473 154.654 7.12473C155.144 7.12473 155.662 7.20657 156.233 7.39074L156.369 7.45212V5.13988L156.288 5.11942C155.798 4.99664 155.144 4.91479 154.301 4.91479C153.239 4.91479 152.313 5.09896 151.469 5.40589C150.626 5.75375 150 6.22438 149.537 6.85872C149.074 7.47258 148.829 8.1683 148.829 8.96633V10.5419H146.352V12.7109H148.829V21.8781H152.395V12.7314H157.73V18.5632C157.73 20.9573 159.228 22.1645 162.222 22.1645C162.712 22.1645 163.229 22.1031 163.719 22.0418C164.236 21.9599 164.618 21.8576 164.835 21.7757L164.863 21.7553V19.5658L164.726 19.6477C164.509 19.75 164.318 19.8318 163.991 19.8932C163.719 19.9546 163.474 19.9751 163.284 19.9751C162.576 19.9751 162.086 19.8523 161.732 19.5454C161.405 19.2589 161.242 18.7882 161.242 18.0925V12.7314H164.863Z" fill="#F9FFFE"/>
<path d="M0.4711 0.801758H17.158V13.3452H0.4711V0.801758Z" fill="#F9FFFE"/>
<path d="M18.9003 0.801758H35.5871V13.3452H18.9003V0.801758Z" fill="#F9FFFE"/>
<path d="M0.4711 14.6548H17.158V27.1982H0.4711V14.6548Z" fill="#F9FFFE"/>
<path d="M18.9003 14.6548H35.5871V27.1982H18.9003V14.6548Z" fill="#F9FFFE"/>
</svg>
