<svg width="90" height="90" viewBox="0 0 90 90" fill="none" xmlns="http://www.w3.org/2000/svg">
<path d="M45 86.9976C53.2752 86.9976 59.9836 83.9032 59.9836 80.0859C59.9836 76.2687 53.2752 73.1742 45 73.1742C36.7248 73.1742 30.0164 76.2687 30.0164 80.0859C30.0164 83.9032 36.7248 86.9976 45 86.9976Z" fill="#D44A28"/>
<path d="M69.982 60.7852C69.982 71.1774 58.7953 82.4836 45 82.4836C31.2047 82.4836 20.018 71.1774 20.018 60.7852C20.018 50.393 69.982 50.393 69.982 60.7852Z" fill="#ED603A"/>
<path d="M45 66.3539C58.6418 66.3539 69.7008 63.1052 69.7008 59.0977C69.7008 55.0902 58.6418 51.8414 45 51.8414C31.3581 51.8414 20.2992 55.0902 20.2992 59.0977C20.2992 63.1052 31.3581 66.3539 45 66.3539Z" fill="#FF8A65"/>
<path d="M65.8898 58.6055C65.8898 60.9047 58.057 63.45 45 63.45C32.1539 63.45 24.1101 60.9047 24.1101 58.6055C24.1101 56.3063 33.4617 53.5711 45 53.5711C56.5383 53.5711 65.8898 56.3133 65.8898 58.6055Z" fill="#5D4037"/>
<path opacity="0.18" d="M69.6727 59.4211C69.6867 59.3156 69.7008 59.2031 69.7008 59.0977C69.7008 55.0899 58.6406 51.8414 45 51.8414C31.3594 51.8414 20.2992 55.0899 20.2992 59.0977C20.2992 59.2031 20.3133 59.3156 20.3274 59.4211C20.1234 59.8571 20.018 60.3141 20.018 60.7852C20.018 65.5594 22.2188 70.0383 25.5094 73.6875C25.9805 74.2078 32.2172 72.7313 36.232 70.3477C43.9313 65.7844 50.0695 63.3024 50.0695 63.3024C50.0695 63.3024 47.1656 63.436 44.993 63.436C32.1469 63.436 24.1031 60.8906 24.1031 58.5914C24.1031 56.2922 33.4547 53.5571 44.993 53.5571C56.5313 53.5571 65.8828 56.2922 65.8828 58.5914C65.8828 60.2227 61.9242 61.9805 54.9563 62.8594C55.6031 62.8524 56.6297 62.9438 57.8672 63.436C61.643 64.9266 66.7195 71.318 68.0836 68.4C69.2719 65.8477 69.975 63.7031 69.975 60.7711C69.982 60.3071 69.8695 59.85 69.6727 59.4211Z" fill="#212121"/>
<path d="M60.1805 32.857C60.2086 32.6531 60.3281 31.6336 58.7602 31.3383C57.1922 31.0429 55.9406 31.1625 55.9406 31.1625L55.0477 28.6242C55.7297 26.3179 56.8617 25.2422 55.8984 22.8656C55.6734 22.3172 54.4711 21.9937 53.4797 22.275C53.4797 22.275 52.4953 22.2469 51.6445 22.8445C50.9133 23.3648 47.8336 25.9664 47.3062 24.4406C47.0883 23.8078 47.4047 23.4281 48.7477 22.4648C49.95 21.607 51.2859 20.8828 52.3406 19.8422C54.1477 18.0492 53.0086 15.532 53.0086 15.532C53.0086 15.532 51.5742 14.9906 50.4281 15.8625C49.5562 16.5234 48.8742 16.9031 48.4664 17.1773C46.4766 18.5133 46.35 16.5726 47.6156 15.8203L49.9641 14.2383C52.3828 12.5578 51.3 9.84373 51.3 9.84373C51.3 9.84373 50.6039 9.62576 49.6898 10.2515C49.3664 10.4765 49.0219 10.7789 48.5156 11.025C47.7703 11.3836 47.2641 11.5734 46.9758 11.0601C46.7789 10.7086 47.1375 10.2797 47.8266 9.78748C48.6141 9.23201 49.043 9.1406 49.5914 8.36013C50.4422 7.15779 50.2172 5.63904 49.9922 5.3156C49.7742 4.99919 48.0797 6.86951 47.7703 6.15232C47.5312 5.59685 48.2906 4.58435 47.482 3.14998C46.8773 2.08123 45.7453 1.59607 45.7453 1.59607C44.8805 2.74919 44.775 4.69685 45.4992 5.96248C45.9422 6.73591 46.4484 7.43201 45.9914 7.85388C45.668 8.14919 45.2531 7.74138 44.5781 7.29841C43.5586 6.63748 42.2156 7.15779 42.2156 7.15779C42.2156 7.15779 41.618 8.88748 42.5391 10.0336C43.207 10.8703 43.7484 11.1867 44.782 12.0586C45.8859 12.9867 45.232 14.0414 43.9242 13.3453C43.4672 13.0992 42.8273 12.5929 42.1172 12.2836C41.0625 11.8195 39.5437 12.5297 39.5437 12.5297C39.5437 12.5297 38.9742 15.1242 40.4227 16.0453C40.9148 16.3617 42.968 17.7328 43.6641 18.0914C45.1055 18.8367 44.7609 20.6578 43.1437 19.8914C41.9906 19.3429 40.7602 18.4219 39.4875 17.8664C37.8 17.1281 36.668 17.9156 36.668 17.9156C36.668 17.9156 36.1617 20.1797 37.4625 21.4453C38.3203 22.282 40.4016 23.6461 41.2242 24.1383C42.0187 24.6094 43.2562 25.1297 42.975 25.7133C42.2086 27.3164 39.7406 26.1422 38.6367 25.5164C36.682 24.4054 34.6219 23.6179 33.4617 24.525C32.2945 25.439 33.1453 28.2234 33.1031 29.4469C33.0047 32.1609 35.2969 32.2734 36.0984 34.5445C36.2531 34.9875 36.218 35.4797 36.1898 35.9508C36 39.0515 36.2531 42.1875 36.9281 45.2179C37.0055 45.5625 37.1039 45.9351 37.3711 46.1601C37.6312 46.3851 38.0039 46.4273 38.3484 46.4554C41.8711 46.7648 45.4148 46.9195 48.9516 46.9195C51.6234 46.9195 54.3586 46.814 56.8266 45.7945C57.2766 45.6047 57.7477 45.3656 57.9938 44.9437C58.2117 44.5781 56.482 39.7968 56.7563 39.4734C58.3664 37.5679 59.8641 34.9875 60.1805 32.857Z" fill="url(#paint0_linear)"/>
<path d="M85.0782 27.7805C84.6633 27.7313 84.3821 27.8086 84.586 27.3586C84.8391 26.7891 84.9024 26.5852 85.0008 26.1914C85.2399 25.193 84.8602 24.525 84.8602 24.525C84.8602 24.525 83.5102 24.6797 82.8914 25.9313C82.568 26.5852 82.1039 28.1883 81.3235 27.6258C81 27.3867 81.2883 26.993 81.3305 26.3461C81.4289 24.975 80.3532 24.7008 80.3532 24.7008C80.3532 24.7008 79.0243 25.0875 78.6727 26.3039C78.3774 27.3375 78.3071 27.9 78.1453 28.8492C77.9907 29.7633 78.0961 30.2133 77.4422 30.3821C76.8797 30.5297 76.5563 30.1008 76.6266 29.4117C76.718 28.4274 76.725 27.5766 76.725 27.5766C76.9289 26.0508 75.368 25.8047 75.368 25.8047C75.368 25.8047 73.7368 25.9453 73.3008 27.7524C73.0618 28.7578 72.9985 29.1656 72.7805 30.5227C72.675 31.1696 72.668 31.9922 72.1055 32.4844C71.5078 33.0047 70.8118 32.5406 70.8328 31.4156C70.8469 30.586 70.9383 30.0727 70.8821 28.8492C70.8258 27.6258 69.511 27.5485 69.511 27.5485C69.511 27.5485 67.4789 28.4203 67.4016 30.5156C67.3453 31.9781 67.3102 34.3758 67.3524 35.0578C67.3524 35.0578 67.5563 36.3235 66.5649 36.7102C65.9602 36.9352 65.2641 36.5555 65.2289 35.4516C65.1797 33.9821 65.2219 33.8344 65.1375 31.9711C65.0602 30.2274 63.6399 29.7281 63.6399 29.7281C63.6399 29.7281 61.4813 29.9672 61.0664 32.0485C60.8203 33.2649 60.8414 38.5875 59.0836 38.5313C57.0446 38.461 52.9243 33.9961 51.518 39.0656C51.2789 39.9164 50.7797 40.6969 50.0625 41.2102C49.1274 41.8922 47.9461 42.1031 46.8282 42.4196C43.1368 43.4602 39.9235 45.893 37.7157 49.0008C36.5485 50.6461 32.7446 57.6844 34.9735 59.3157C35.768 59.8992 38.3766 59.6883 39.4524 59.6883C41.836 59.6953 44.2125 59.7024 46.5961 59.7024C50.0696 59.7094 53.536 59.7164 57.0094 59.7305C57.136 58.9992 57.1641 58.2891 57.1219 57.593L58.0571 57.6L64.793 57.8602C64.793 57.8602 66.1641 55.2586 67.4227 54.6961C67.5914 54.6188 70.0594 52.7977 69.9821 52.6289C68.9977 50.4492 63.4711 48.361 63.4711 48.361C64.3641 48.2906 65.6719 47.2782 68.0625 48.5719C70.9102 50.1117 72.6539 49.4086 72.6539 49.4086C72.6539 49.4086 73.2868 48.4594 71.4305 46.0899C70.4602 44.8453 66.1782 42.6516 66.1782 42.6516C65.7141 42.3352 64.4836 42.0188 65.0602 41.1117C65.4539 40.486 67.1133 41.0274 68.5688 41.8219C69.7993 42.4969 69.5883 42.5742 72.3446 44.1C74.0602 45.0492 76.4297 44.1 76.4297 44.1C76.4297 44.1 76.5563 41.9555 75.0586 40.5914C73.793 39.4383 70.8821 37.6946 70.8821 37.6946C70.2071 37.118 70.1016 36.6539 70.65 36.3516C71.4446 35.9227 72.4008 36.5203 73.3008 36.9774C74.2008 37.4344 76.6688 38.6438 76.6688 38.6438C78.061 39.4031 80.2055 39.1641 80.2055 39.1641C80.2055 39.1641 80.6836 37.4485 80.0016 36.6328C79.0172 35.4516 76.1836 34.193 76.1836 34.193C75.4735 33.6727 75.2907 33.3563 75.6914 32.9274C76.0922 32.5055 76.4578 32.5125 77.6461 33.068C78.8977 33.6586 79.868 34.1367 80.993 34.5024C82.118 34.868 84.1852 34.1719 84.1852 34.1719C84.1852 34.1719 84.1219 32.5758 83.0672 31.8727C82.2516 31.3313 81.2672 30.9375 81.2672 30.9375C80.7188 30.7477 80.2899 30.3117 80.5641 29.7985C80.8875 29.2078 82.1391 29.7141 82.9336 29.8688C84.0938 30.0938 84.7266 30.15 85.9289 29.7141C86.7164 29.4258 87.1594 28.6172 87.1594 28.6172C87.1594 28.6172 87.061 28.0266 85.0782 27.7805Z" fill="url(#paint1_radial)"/>
<path d="M58.1765 43.6289C57.1289 42.7289 55.7086 42.2437 54.3304 42.3984C53.6414 42.4758 52.9523 42.6937 52.2562 42.6375C51.5601 42.5742 50.8218 42.1031 50.7867 41.407C50.7656 40.95 51.0398 40.5422 51.2789 40.1555C51.9046 39.143 52.3617 37.9336 52.0804 36.7805C51.7992 35.6273 50.5265 34.6781 49.4156 35.1C48.3609 35.5008 48.0164 36.7875 47.6578 37.8562C47.1726 39.3117 46.4062 40.6758 45.4218 41.857C44.9929 42.3703 44.3601 42.8976 43.7203 42.6937C42.7992 42.4125 44.6906 37.1742 42.6796 32.8711C42.075 31.5844 41.5687 30.4172 41.0765 30.4172C40.2257 30.4172 39.9445 33.307 39.7054 34.3547C39.4945 35.2898 39.0164 37.0828 38.1093 37.2094C37.5046 37.2937 36.7664 36.3234 36.5765 35.9437C35.9437 34.6922 34.7414 31.5562 33.3914 30.8391C32.3578 30.2976 31.1343 31.0359 31.1343 32.7656C31.1343 33.3492 32.3859 37.2234 33.1875 39.375C33.4406 40.057 32.0906 40.5562 31.4226 39.2836C31.4226 39.2836 29.3625 35.8453 28.5539 34.6851C27.3445 32.9414 25.1507 33.2578 25.1507 33.2578C25.1507 33.2578 24.2648 34.6992 25.0031 36.8016C25.6148 38.5594 25.5515 38.0953 26.0859 39.4664C26.4937 40.5 26.0015 41.1187 25.3617 41.1539C24.3 41.1891 23.9835 39.9516 23.9835 39.9516C23.7515 39.3117 22.7671 37.125 22.1343 35.8101C21.2273 33.9187 19.0195 33.9258 19.0195 33.9258C19.0195 33.9258 17.8382 34.5164 18.2742 35.6625C18.7101 36.8086 18.9984 37.2445 19.3429 37.9969C19.814 39.0234 19.357 39.7266 18.6046 39.4875C17.9015 39.2625 17.564 38.5101 17.2054 37.9547C16.4671 36.7945 16.2492 36.45 15.6234 35.6273C14.5125 34.1437 12.9515 34.657 12.9515 34.657C12.9515 34.657 11.6156 35.5078 12.4101 36.8226C12.4101 36.8226 12.7546 37.5961 13.2328 38.468C13.5632 39.0726 13.4437 39.593 12.8671 39.6844C12.1992 39.7898 12.1218 39.3328 11.6156 38.5594C11.0882 37.7578 10.8 37.2656 10.1179 36.4359C9.30933 35.4586 7.93824 35.6344 7.93824 35.6344C7.93824 35.6344 7.06636 36.3094 7.69917 37.5328C7.99449 38.1094 8.42339 38.3555 8.21949 38.7C7.73433 39.5297 6.66558 38.243 6.11011 37.7719C5.04136 36.8719 3.74058 37.2656 3.74058 37.2656C3.74058 37.2656 3.6562 38.0391 4.27495 38.8547C4.52105 39.1781 4.66167 39.3398 5.1187 39.7617C5.48433 40.0992 5.19605 40.1344 4.83745 40.3453C3.1148 41.3578 3.26949 41.9344 3.26949 41.9344C3.26949 41.9344 3.9937 42.4969 4.83042 42.4547C6.11011 42.3844 6.66558 42.075 7.64292 41.407C8.31089 40.95 9.26011 39.9797 9.78745 40.4016C10.2445 40.7601 10.0265 41.3367 9.59761 41.7305C9.59761 41.7305 8.8523 42.4828 8.31792 43.3055C7.62886 44.3672 8.20542 45.8578 8.20542 45.8578C8.20542 45.8578 10.3851 45.6609 11.264 44.8875C12.15 44.107 12.846 43.2773 13.7601 42.2437C14.632 41.2594 14.9625 41.1047 15.4968 41.3367C16.0312 41.5617 15.989 41.9273 15.546 42.6937C15.546 42.6937 13.4437 44.9789 13.0078 46.4555C12.7054 47.475 13.8304 48.8601 13.8304 48.8601C13.8304 48.8601 15.8906 48.2273 16.8679 46.9758C16.8679 46.9758 18.6539 44.8805 19.2937 44.107C19.9406 43.3336 20.5804 42.3984 21.4804 42.4828C22.0992 42.5391 22.1906 43.0101 21.8039 43.8047C21.8039 43.8047 19.8281 46.5609 19.125 48.1219C18.2953 49.9641 19.2585 51.8836 19.2585 51.8836C19.2585 51.8836 21.8179 51.8062 23.0062 50.2594C24.9257 47.7562 24.7007 47.7703 25.5656 46.6664C26.5851 45.3586 27.8929 44.1984 28.4976 44.6133C29.3906 45.225 28.3851 45.9984 28.0828 46.4766C28.0828 46.4766 25.1859 50.2453 24.6304 51.7219C23.8078 53.8945 24.7218 56.25 24.7218 56.25C24.7218 56.25 27.2531 56.0391 29.257 53.6625C29.6085 53.2476 29.9109 52.875 30.1921 52.5375L31.7812 53.5992C31.0289 54.9281 30.4734 56.2922 29.946 57.9515C31.2257 57.5226 37.3148 59.6812 37.3148 59.6812L57.0023 59.7305C57.1289 58.9992 57.157 58.2891 57.1148 57.593L58.05 57.6L64.7859 57.8601C64.7859 57.8601 66.157 55.2586 67.4156 54.6961C67.5843 54.6187 67.6336 54.4148 67.514 54.2742C66.4312 53.0508 65.1375 51.5601 63.6679 50.7867C62.3953 50.1187 61.0593 50.3437 60.3632 48.7476C59.632 47.0812 59.8851 45.3867 58.5492 43.9875C58.4367 43.8609 58.3101 43.7414 58.1765 43.6289Z" fill="url(#paint2_radial)"/>
<path d="M52.6992 40.1625C51.9398 39.7476 51.6445 39.1641 52.1929 38.7281C52.439 38.5312 53.4094 38.925 55.1953 39.4101C57.5015 40.0359 58.8797 40.4297 60.3351 40.3664C63.2812 40.2469 63.7031 37.6945 63.7031 37.6945C63.7031 37.6945 63.3445 36.6187 60.6023 36.4289C59.5406 36.3586 57.6422 35.9648 56.1234 35.5289C54.7172 35.1281 53.5429 34.3687 54.2461 33.6867C54.6679 33.2789 55.5328 33.6586 56.4961 33.8273C58.6054 34.2 60.3281 34.6148 61.657 34.65C64.4554 34.7273 65.4117 32.9555 65.4117 32.9555C65.4117 32.9555 65.0461 31.3101 62.8875 30.7758C61.7344 30.4875 60.4687 30.3047 58.1554 29.8125C56.8125 29.5312 56.8969 29.1164 57.2976 28.7578C57.839 28.2726 58.95 28.3922 59.632 28.4484C61.2773 28.5961 63.3375 29.0883 64.4695 29.1586C66.4242 29.2781 67.4367 27.8156 67.4367 27.8156C67.4367 27.8156 67.3664 26.1492 65.4679 25.5516C63.6679 24.982 63.239 25.2211 61.8258 24.7008C60.9258 24.3703 60.6094 23.9906 60.9679 23.6672C61.2984 23.3719 62.0086 23.3648 63.3797 23.4773C65.2148 23.625 66.6422 23.9484 68.0344 24.075C70.432 24.293 71.1211 22.7672 71.1211 22.7672C71.1211 22.7672 70.9031 21.4664 69.2015 20.9461C68.3859 20.693 67.4929 20.6016 66.0937 20.1937C65.5312 20.032 65.4398 19.7226 65.6719 19.357C65.9039 18.9984 66.5437 18.9211 67.4437 19.0125C69.0047 19.1742 69.5601 19.3078 70.657 19.4766C72.8367 19.8211 73.9265 18.8648 73.9265 18.8648C73.9265 18.8648 74.1867 17.5641 72.9422 17.1211C71.7961 16.7133 71.0015 16.6781 70.1719 16.4601C69.3422 16.2422 69.4406 15.8906 69.7148 15.6937C70.657 15.0117 73.4836 16.0805 74.4539 16.1859C76.1062 16.3687 77.0062 15.3984 77.0062 15.3984C77.0062 15.3984 77.2594 14.182 76.064 13.7672C75.1078 13.4367 74.2289 13.4016 74.7492 12.9234C75.0023 12.6914 75.8812 12.6141 76.3383 12.6492C77.7304 12.7476 78.2648 12.8953 78.9328 12.7195C79.5586 12.5578 80.3883 11.9531 80.8523 11.4961C79.8398 10.8281 78.6726 10.6383 77.4914 10.4555C76.1765 10.2516 75.4383 11.7492 74.7844 11.5383C74.4609 11.4328 75.1851 10.3008 74.4398 10.3781C73.9969 10.4273 73.0406 10.6594 72.6679 11.7281C72.3375 12.6703 72.2742 14.0625 71.3179 13.8726C70.7273 13.7601 70.9664 13.0922 71.0508 12.6211C71.2828 11.3555 70.7344 11.1586 70.7344 11.1586C70.7344 11.1586 68.7726 11.1234 68.1117 13.1836C67.7601 14.2734 67.5633 16.1789 66.6633 16.1508C65.8969 16.1297 66.1992 15.2508 66.1851 14.4844C66.164 13.2609 65.032 13.1133 65.032 13.1133C65.032 13.1133 63.1547 13.4859 63.0492 15.068C63.007 15.6726 62.9789 16.8187 62.9789 18.1617C62.9789 19.3078 62.6906 20.2148 62.2547 20.4117C61.4109 20.7984 61.3828 19.7156 61.3125 18.5906C61.2422 17.4726 61.2773 16.8328 61.1015 16.3476C60.8414 15.6445 59.4 15.7078 59.4 15.7078C59.4 15.7078 57.825 16.8961 57.8883 18.1898C57.9375 19.2023 58.0992 20.7141 58.2047 21.3187C58.3875 22.3805 58.3734 23.8219 57.7476 24.3844C57.1359 24.9328 56.7 23.2312 56.2359 20.7C55.8211 18.4219 54.0773 18.7101 54.0773 18.7101C54.0773 18.7101 52.4109 19.9617 52.6711 21.9305C52.8609 23.393 53.1773 24.4547 53.4445 25.3266C54.1054 27.4922 54.2109 28.2726 54.007 28.7648C53.1914 30.7336 52.1929 27.4359 51.307 24.743C50.6953 22.8797 49.05 23.0976 49.05 23.0976C49.05 23.0976 47.6015 24.4687 47.925 26.1633C48.4594 28.9828 49.4015 30.5719 50.0133 31.6125C51.1523 33.5672 51.3914 34.432 51.1804 34.9453C50.9484 35.5008 49.8867 34.9383 49.057 33.5672C48.1711 32.0836 47.7773 31.1906 47.1445 29.3695C46.6031 27.8226 45.9914 28.0195 45.9914 28.0195C45.9914 28.0195 44.6484 29.9391 45.3094 32.0906C46.6312 36.3797 49.2609 38.4891 49.507 38.7281C50.0976 39.2906 49.282 39.3328 48.1219 38.7914C46.8562 38.2008 45.1195 34.9875 45.1195 34.9875C45.1195 34.9875 44.5922 36.682 45.5906 38.8898C46.7508 41.4492 48.4875 41.7586 49.5633 42.0258C50.8218 42.3422 51.2859 42.1453 51.9187 42.9187C54.5484 46.1672 58.3664 45.6539 59.0062 45.6539C62.1211 45.6539 62.4656 43.4742 62.4656 43.4742C62.4656 43.4742 62.0015 42.4898 59.9625 42.1383C59.1539 41.9976 58.3031 42.082 55.6875 41.3226C54.7875 41.0766 53.564 40.6336 52.6992 40.1625Z" fill="#73B03E"/>
<path d="M41.857 25.3125C41.857 25.3125 40.1906 26.0016 39.9656 27.3516C39.6914 28.7227 39.6351 32.7727 38.9179 34.3688C38.4468 35.4094 37.6172 34.7555 37.9406 33.0609C38.3554 30.9094 38.8547 28.1672 38.5242 25.8961C38.25 24.0258 36.6609 22.8516 36.6609 22.8516C36.6609 22.8516 35.0648 23.0766 34.8961 24.061C34.6148 25.7133 34.6992 27.1688 34.6007 28.2797C34.5304 29.0531 34.5375 30.4383 33.5601 30.1781C32.9343 30.0164 33.1101 28.132 33.1312 27.5625C33.1734 26.2336 33.4125 25.6078 33.3914 23.0836C33.3703 21.0516 31.1836 19.9406 31.1836 19.9406C31.1836 19.9406 29.925 20.2711 29.7281 21.5086C29.4328 23.393 29.6297 25.4672 28.4836 25.1086C27.7382 24.8766 28.3148 21.8953 28.1039 20.3344C27.8929 18.7313 26.4515 17.7891 26.4515 17.7891C26.4515 17.7891 25.0804 17.8242 24.975 19.2727C24.8836 20.5945 25.0804 22.4649 23.8992 22.507C22.732 22.5492 23.3367 20.5524 22.9992 18.2531C22.7531 16.5797 20.8898 15.9258 20.8898 15.9258C20.8898 15.9258 19.4203 16.1578 19.4343 17.3391C19.4414 17.7891 19.357 18.9703 18.6187 18.8156C17.9507 18.675 17.6695 17.7188 17.5078 17.1703C17.3039 16.4953 17.1422 16.0383 16.6078 15.525C15.989 14.9274 14.2172 14.3719 14.1539 14.4C14.0484 14.4492 13.8937 15.9047 14.1117 16.4813C14.4351 17.3531 15.0328 17.8242 15.5601 18.5344C16.2281 19.4274 15.1875 19.2727 14.4703 19.7227C13.6195 20.257 13.4156 21.2203 13.4156 21.2203C13.4156 21.2203 14.4 22.057 15.4054 22.1274C16.3617 22.1977 17.2547 21.9024 18.1265 21.6422C19.2515 21.2977 20.3343 21.0305 20.6929 21.5578C21.2414 22.3524 19.3711 22.4016 18.0492 23.4844C17.2265 24.1594 17.1422 25.2984 17.1422 25.2984C17.1422 25.2984 19.2023 26.6484 20.2359 26.2828C22.2398 25.5656 22.95 24.968 23.9132 24.6586C25.0172 24.3 26.2476 24.8695 24.975 25.7625C24.0609 26.4094 22.9359 27.0352 22.1976 27.7805C21.2906 28.6875 21.3679 29.8899 21.3679 29.8899C21.3679 29.8899 22.8515 31.0078 24.089 30.7266C26.1281 30.2625 27.3937 29.2781 28.4765 28.7649C29.7773 28.1531 30.3117 28.3078 30.7547 28.6664C31.2328 29.0602 30.3187 29.4539 29.1797 30.0375C27.8648 30.7125 26.4164 31.9078 25.875 32.4914C25.1718 33.2508 25.2422 35.9367 25.2422 35.9367C25.2422 35.9367 27.45 36.7524 29.2922 35.9016C31.2328 35.0086 33.2718 32.9625 34.1367 33.2719C35.4726 33.743 34.4601 34.4953 32.5547 36.0281C31.1062 37.1953 29.8476 38.0391 28.9406 39.0516C28.0898 40.0008 28.139 42.4336 28.139 42.4336C28.139 42.4336 29.25 43.0945 30.8953 42.9539C33.0047 42.7781 35.7257 39.1922 36.7593 38.2289C37.4343 37.6031 38.0672 38.4328 36.914 40.5703C35.1351 43.875 34.3054 43.8609 33.4125 46.3992C32.7234 48.375 33.8836 50.2805 33.8836 50.2805C33.8836 50.2805 35.7047 50.7445 36.9422 49.8727C37.9265 49.1836 38.6367 47.8406 39.3468 45.9211C39.5156 45.4711 39.8531 44.3883 39.8179 41.5758C39.7968 39.4875 39.4172 40.043 40.507 38.1727C43.0523 33.8063 43.8047 31.8305 43.4531 28.5258C43.2492 26.5289 41.857 25.3125 41.857 25.3125Z" fill="#73B03E"/>
<path d="M52.2352 45.45C52.2352 45.45 48.5578 46.5328 47.3344 47.5875C46.1109 48.6492 44.7469 50.5195 43.2844 51.0469C41.8219 51.5742 40.7953 51.4476 40.7953 51.4476C40.7953 51.4476 41.6391 48.1219 43.9031 46.5047C46.1883 44.8664 49.6195 44.1562 52.2352 45.45Z" fill="#A1D65C"/>
<path d="M31.1414 54.0633H65.8898V60.1805H31.1414V54.0633Z" fill="url(#paint3_linear)"/>
<path d="M78.975 74.5875C79.1368 74.011 79.0524 73.2446 79.0735 72.0844C79.0875 71.4094 79.4813 71.3954 80.6274 72.5555C81.1336 73.0688 82.0688 73.1532 82.0688 73.1532C82.1813 71.0016 81.2532 70.3688 79.7696 69.5321C78.4618 68.8008 77.1891 68.5336 77.7727 67.718C77.9625 67.4508 78.8414 67.8797 79.2914 68.0555C81.9422 69.1032 82.1743 68.2946 82.1743 68.2946C82.1743 68.2946 81.9985 66.2414 79.3125 65.2993C78.0188 64.8493 75.818 64.5258 75.8461 63.8719C75.8743 63.0141 77.0977 63.3375 77.8149 63.5133C81.443 64.3852 81.7735 63.8297 81.7735 63.8297C81.7735 63.8297 81.0352 60.8555 77.618 60.2649C75.9305 59.9766 72.9211 59.7094 72.7735 58.9079C72.6188 58.0571 75.8953 58.5422 77.2032 58.7532C79.0243 59.0485 79.5516 58.5774 79.5516 58.5774C79.5516 58.5774 78.7641 55.8 74.911 55.4696C72.0703 55.2305 70.2211 55.6102 69.7641 54.893C69.3563 54.2391 71.9789 54.0774 74.5102 54.2672C76.5 54.4149 77.5758 54.3657 77.5758 54.3657C77.5758 54.3657 76.8164 51.5461 72.6469 51.2579C68.4985 50.9696 64.6735 52.0664 65.1516 51.2508C65.6578 50.393 67.3243 50.2594 69.4336 50.1539C70.5094 50.1047 71.8383 50.1399 72.5414 50.0485C74.1868 49.8375 74.693 49.1696 74.693 49.1696C74.693 49.1696 72.9493 47.5313 70.418 47.0883C68.1891 46.7016 66.3188 47.011 63.6961 47.6297C62.2547 47.9672 60.525 48.4594 60.0399 48.0516C59.7235 47.7914 60.9539 47.0321 62.2618 46.7157C63.3446 46.4555 65.4188 46.2586 66.8672 46.1391C67.7813 46.0688 68.3719 45.7664 68.3719 45.7664C68.3719 45.7664 67.9922 45.4571 67.3102 45.1125C66.0446 44.4727 63.893 43.9032 61.8047 44.325C60.5461 44.5782 59.5969 44.8102 58.5985 45.5766C57.5719 46.3641 56.9883 47.0954 55.7367 47.0532C54.4852 47.018 53.768 46.5047 51.518 47.2571C50.5407 47.5875 48.5719 49.0079 47.018 50.8008C45.4008 52.6711 45.7383 54.4149 45.7383 54.4149C45.7383 54.4149 47.4399 54.9211 49.1555 53.9649C51.5672 52.6219 54.45 48.7688 55.6805 48.9094C57.15 49.0782 55.118 50.5547 54.1617 51.5813C52.0032 53.8875 50.9977 55.9407 50.7094 57.6703C50.4493 59.2383 51.068 59.9977 51.068 59.9977C51.068 59.9977 53.2688 59.6813 54.211 58.3805C55.575 56.4891 57.0305 54.7102 57.9797 53.3954C59.1469 51.7782 59.8219 51.2508 60.4125 50.9977C61.5657 50.5055 62.4867 50.843 60.8203 52.7485C58.8305 55.0196 57.1289 57.5086 56.686 59.2594C56.2571 60.9399 57.0868 62.3672 57.0868 62.3672C57.0868 62.3672 59.1258 61.6571 60.0258 60.5039C61.8258 58.1907 62.4235 56.8618 63.3938 55.4204C64.1532 54.2883 65.0321 53.3813 65.8899 53.6274C66.811 53.8946 65.8547 55.0055 64.7157 56.693C63.7453 58.1203 62.6485 60.1875 62.3461 61.6993C61.9453 63.7243 62.5571 64.7086 62.5571 64.7086C62.5571 64.7086 65.0039 64.3149 65.7282 63.2039C66.3539 62.2547 67.5211 59.843 68.3368 58.718C69.0118 57.7829 69.6094 56.5946 70.4391 57.0868C70.875 57.3469 70.4461 58.3313 69.525 59.8289C68.8149 60.9821 68.0063 62.5079 67.6196 63.7875C67.2188 65.1094 67.7883 66.5719 67.7883 66.5719C67.7883 66.5719 69.7922 66.6633 70.6078 65.1094C71.2899 63.8157 71.8946 62.7188 72.3867 61.9313C73.4414 60.2508 74.0883 61.425 73.3008 62.9016C72.4641 64.4696 71.8805 65.5172 71.4727 67.043C71.2196 67.9922 71.6836 69.2649 71.6836 69.2649C71.6836 69.2649 72.9422 69.3493 73.6594 68.4352C74.918 66.8321 74.8828 65.6649 75.6211 66.3258C76.1485 66.8039 74.9321 68.4844 74.2711 69.7079C73.6102 70.9383 73.9055 72.3586 73.9055 72.3586C73.9055 72.3586 75.4594 72.9071 76.1344 71.55C77.3578 69.1032 77.9274 70.0524 77.5969 71.1633C77.4914 71.5289 76.9922 73.1391 76.8868 73.5118C76.3032 75.4875 77.393 76.3313 77.393 76.3313C77.393 76.3313 78.5953 75.9235 78.975 74.5875Z" fill="#A1D65C"/>
<path d="M15.6657 76.6828C15.4688 76.2961 15.0258 75.4172 15.6867 75.0726C16.4391 74.6719 16.7203 75.9023 17.4094 76.6266C18.5836 77.85 19.6383 77.2875 19.6383 77.2875C19.6383 77.2875 20.4258 76.1625 19.7649 74.5594C19.125 73.0125 17.7469 71.9367 18.3024 71.2055C18.6117 70.7976 19.5047 70.4883 20.7071 72.7734C21.818 74.8828 23.5828 74.4891 23.5828 74.4891C23.5828 74.4891 24.8063 72.9914 23.9274 70.7133C23.3157 69.1383 22.043 67.7672 22.3172 67.0008C22.6477 66.0726 23.4633 66.1078 24.2578 67.4859C24.7571 68.3437 25.2563 69.3984 25.8891 70.2422C27.1125 71.8875 28.8563 71.7609 28.8563 71.7609C28.8563 71.7609 29.7633 70.2141 29.0532 67.957C28.6946 66.818 28.3219 65.9039 27.4852 64.3008C27.0703 63.5133 26.3321 62.4305 26.8946 61.7766C27.436 61.1508 28.2164 61.9383 28.8563 62.9016C30.3821 65.2008 30.4383 65.8758 31.2117 67.0992C32.3438 68.8781 34.7766 68.8078 34.7766 68.8078C34.7766 68.8078 35.6977 67.0008 35.3391 65.2078C34.8961 63.0281 34.3688 61.4672 33.1102 59.4914C32.5477 58.6125 31.9078 57.4805 32.4211 57.1359C32.9133 56.8125 33.6727 57.157 34.5797 58.5351C35.8102 60.3984 36.7664 62.2125 37.6242 63.7594C38.6297 65.5734 41.0836 65.8687 41.0836 65.8687C41.0836 65.8687 42.068 64.8211 41.2032 61.6148C40.5422 59.168 39.6282 57.6281 39.0305 56.5242C38.2922 55.1742 37.0055 54.2742 37.8282 53.9016C38.5875 53.557 39.586 54.45 40.6758 56.1586C41.8008 57.9234 42.0821 59.2664 43.3969 61.0875C44.4727 62.5851 46.9969 62.3531 46.9969 62.3531C46.9969 62.3531 47.3485 60.9187 47.0742 59.5195C46.793 58.0641 45.9 56.3836 44.4938 54.7734C41.3508 51.1734 39.3469 52.6641 39.15 51.9891C39.0586 51.6727 39.2344 50.7023 38.461 49.3664C37.35 47.4539 34.636 45.6539 31.5703 45.682C30.3399 45.6961 28.1391 46.0758 27.1547 46.7648C27.1547 46.7648 27.2672 47.8406 28.5961 48.4242C30.1641 49.1203 33.3071 49.732 34.643 50.9695C35.5289 51.7851 36.0844 52.7414 35.1352 52.3547C34.7414 52.193 33.3985 51.2437 31.9922 50.7445C30.5227 50.2242 29.0391 49.9992 27.2742 49.943C24.6375 49.8586 22.5844 50.9555 22.5844 50.9555C22.5844 50.9555 22.725 51.6305 24.2789 52.425C25.2141 52.9031 28.1039 53.332 29.2078 53.8734C30.1149 54.3164 30.9235 54.6328 30.4102 55.1461C30.0867 55.4695 29.5805 55.3641 29.1586 55.2023C27.2039 54.443 24.2086 54.0562 22.6125 53.993C20.3977 53.9086 18.8086 55.3641 18.8086 55.3641C18.8086 55.3641 18.7946 56.5664 20.4047 57.1078C22.7391 57.8883 26.1914 57.7476 26.9789 58.6336C27.7453 59.5055 25.8328 59.6461 24.061 59.3156C22.1414 58.95 21.15 58.8375 17.7821 59.3437C15.5039 59.6812 14.3508 61.2562 14.3508 61.2562C14.3508 61.2562 14.9625 62.6062 16.193 62.7258C18.6469 62.9719 23.8078 62.5289 23.4282 63.5344C23.0836 64.4414 22.0078 64.3711 20.9039 64.2937C18.893 64.1602 17.1071 64.0617 15.1875 64.5117C12.8813 65.0531 12.0727 66.9656 12.0727 66.9656C12.0727 66.9656 12.6492 67.957 14.0133 67.9781C16.5164 68.0203 19.6313 67.1555 20.2641 67.725C21.1571 68.5336 19.125 68.8359 18.0422 68.8851C16.6852 68.9484 14.1961 69.1312 12.811 69.8133C10.9758 70.7133 10.8 72.1336 10.8 72.1336C10.8 72.1336 11.2008 72.8648 13.0782 72.7242C13.5774 72.6891 15.4125 72.0984 16.1227 72.232C17.2477 72.45 16.2844 73.132 15.0399 73.4555C14.6742 73.5469 13.1133 73.9055 12.4313 74.2781C11.7211 74.6648 10.575 75.0515 10.3219 77.2312C10.3219 77.2312 11.0883 77.5617 12.5156 77.1258C13.1836 76.9219 13.7742 76.4578 14.1188 76.7953C14.4563 77.1328 13.6547 78.1172 13.5633 79.1297C13.3664 81.2039 14.5758 82.1039 14.5758 82.1039C14.5758 82.1039 15.9469 81.2391 16.1789 79.5867C16.4039 77.8359 15.8203 76.9922 15.6657 76.6828Z" fill="#A1D65C"/>
<defs>
<linearGradient id="paint0_linear" x1="46.2424" y1="41.6433" x2="46.762" y2="18.206" gradientUnits="userSpaceOnUse">
<stop offset="0.365" stop-color="#1B5E20"/>
<stop offset="0.95" stop-color="#2E7D32"/>
</linearGradient>
<radialGradient id="paint1_radial" cx="0" cy="0" r="1" gradientUnits="userSpaceOnUse" gradientTransform="translate(60.0947 50.1694) scale(19.4653)">
<stop offset="0.209" stop-color="#1B5E20"/>
<stop offset="0.74" stop-color="#2E7D32"/>
</radialGradient>
<radialGradient id="paint2_radial" cx="0" cy="0" r="1" gradientUnits="userSpaceOnUse" gradientTransform="translate(44.5507 56.7169) scale(23.5786)">
<stop offset="0.209" stop-color="#1B5E20"/>
<stop offset="0.74" stop-color="#2E7D32"/>
</radialGradient>
<linearGradient id="paint3_linear" x1="48.5142" y1="59.002" x2="48.5142" y2="53.9972" gradientUnits="userSpaceOnUse">
<stop stop-color="#5D4037"/>
<stop offset="1" stop-color="#5D4037" stop-opacity="0"/>
</linearGradient>
</defs>
</svg>
