<svg width="65" height="41" viewBox="0 0 65 41" fill="none" xmlns="http://www.w3.org/2000/svg">
<path d="M62.7286 4.81378H54.8319C54.0984 4.81378 53.5038 5.37279 53.5038 6.06241V7.14047H49.8006C49.0671 7.14047 48.4725 7.69948 48.4725 8.3891V8.74845C46.3137 8.57127 45.6037 8.18645 43.6212 7.11163C42.0965 6.28504 39.7921 5.03579 35.6421 3.28159C35.6229 3.27335 35.6035 3.26573 35.5837 3.25849C34.2329 2.75879 30.6925 1.77562 26.9112 3.38672L21.5668 5.18575L17.0619 0.950653C16.5433 0.463064 15.7023 0.463064 15.1837 0.950653L0.393958 14.855C-0.0844324 15.3049 -0.176206 16.0849 0.393958 16.6209L25.6664 40.3807C26.0709 40.761 27.0178 40.876 27.5448 40.3807L41.0472 27.6866C41.3982 27.7151 41.7625 27.7305 42.1401 27.7305C45.61 27.7305 48.6793 25.4927 50.4352 23.0536H62.7286C63.4621 23.0536 64.0567 22.4946 64.0567 21.805V6.06241C64.0567 5.37279 63.4621 4.81378 62.7286 4.81378ZM16.1227 3.59937L19.1497 6.44524C18.2499 6.96841 17.2096 7.24835 16.1227 7.24835C15.0356 7.24835 13.9954 6.96854 13.0956 6.44524L16.1227 3.59937ZM6.23851 18.5839L3.21144 15.7379L6.23851 12.892C6.79499 13.738 7.09276 14.716 7.09276 15.7379C7.09276 16.7598 6.79512 17.7378 6.23851 18.5839ZM26.6057 37.7318L23.5792 34.8865C25.427 33.8144 27.7841 33.8144 29.6321 34.8865L26.6057 37.7318ZM31.5457 33.0877C28.6108 31.0861 24.6006 31.0861 21.6657 33.0877L8.15193 20.3827C9.18907 19.0416 9.74901 17.4308 9.74901 15.7379C9.74901 14.0449 9.1892 12.4342 8.15193 11.0931L11.1823 8.24426C12.6087 9.21931 14.322 9.74573 16.1228 9.74573C17.9236 9.74573 19.6369 9.21931 21.0633 8.24426L23.9359 10.9449C23.3161 11.0309 22.7116 11.223 22.148 11.5183C21.196 12.017 20.449 12.7638 19.9839 13.6673C18.4858 13.9281 17.0988 14.61 16.0108 15.6328C13.0591 18.408 13.0591 22.9234 16.011 25.6986C17.4868 27.086 19.4255 27.7799 21.3643 27.7799C23.3029 27.7799 25.2417 27.0862 26.7177 25.6986C27.6779 24.7958 28.3506 23.6863 28.6875 22.4771L33.1718 23.9079C32.667 26.1065 33.184 28.4194 34.5787 30.2362L31.5457 33.0877ZM23.4709 20.8121C23.4826 20.8161 23.4943 20.8201 23.5061 20.8238L26.1618 21.6712C25.9613 22.5222 25.5075 23.3046 24.8394 23.9328C22.9232 25.734 19.8053 25.7343 17.8893 23.9328C15.9731 22.1314 15.9731 19.2002 17.8893 17.3987C18.3515 16.9639 18.897 16.6242 19.4913 16.3938C19.7365 18.3119 21.2055 20.0217 23.4709 20.8121ZM36.4924 28.4369C35.9797 27.6515 35.6897 26.7552 35.6439 25.8403C36.28 26.2727 37.0575 26.6963 37.9861 27.0326L36.4924 28.4369ZM48.4723 21.3071C47.2136 23.2473 44.7722 25.233 42.1401 25.233C41.6476 25.233 41.1861 25.2 40.7546 25.1413C40.7529 25.1411 40.7512 25.1408 40.7494 25.1406C37.8812 24.7489 36.3383 23.2163 35.8298 22.6095C35.8027 22.572 35.6873 22.43 35.6702 22.4064C35.5154 22.1465 35.2618 21.9375 34.9382 21.8342L24.3786 18.4648C22.6934 17.8702 21.8027 16.5135 22.2109 15.1605C22.2112 15.1597 22.2115 15.1588 22.2117 15.1579C22.2121 15.1569 22.2124 15.1558 22.2127 15.1548C22.4024 14.5317 22.8383 14.0149 23.4408 13.6994C24.0392 13.3859 24.7311 13.3081 25.3909 13.48L37.2899 17.025C37.9893 17.2336 38.7357 16.8693 38.9573 16.2119C39.1788 15.5545 38.7916 14.8527 38.0924 14.6443L28.6288 11.8249L28.5462 11.7473C28.5454 11.7465 28.5446 11.7457 28.5437 11.7449L23.6442 7.13872L27.8555 5.72103C27.8697 5.71616 27.8872 5.71004 27.9013 5.70468C27.9049 5.7033 27.9118 5.7008 27.9152 5.69943C27.9333 5.69256 27.9511 5.68532 27.9688 5.67771C30.8157 4.44756 33.5219 5.18387 34.5827 5.5717C38.5914 7.26746 40.731 8.42731 42.2942 9.27475C44.4675 10.4531 45.5147 11.0208 48.4723 11.2505V21.3071ZM53.5038 20.5561H51.1287V9.63773H53.5038V20.5561ZM61.4004 20.5561H56.1601V7.31103H61.4004V20.5561Z" fill="#FA3239"/>
</svg>
