<svg width="62" height="26" viewBox="0 0 62 26" fill="none" xmlns="http://www.w3.org/2000/svg">
<path d="M61.0928 10.9012C61.0877 10.8888 61.0823 10.8764 61.0768 10.8642C59.8544 8.17495 56.9875 7.18103 53.5946 8.27048L44.3419 10.6761C43.8069 9.15302 42.4725 7.85693 40.5858 7.19864C40.5741 7.19465 40.5624 7.19065 40.5506 7.1869L30.3797 3.94143C29.5331 2.91267 26.8814 0.280273 21.9165 0.280273C18.4467 0.280273 15.3773 2.51809 13.6213 4.95732H1.32813C0.594602 4.95732 0 5.51634 0 6.20597V21.9485C0 22.6381 0.594602 23.1972 1.32813 23.1972H9.22476C9.95828 23.1972 10.5529 22.6381 10.5529 21.9485V20.8704H14.2561C14.9896 20.8704 15.5842 20.3114 15.5842 19.6218V19.2624C17.743 19.4395 18.453 19.8244 20.4356 20.8993C21.9603 21.7259 24.2647 22.9751 28.4146 24.7294C28.4338 24.7375 28.4534 24.7452 28.4729 24.7525C29.2694 25.047 30.8263 25.5098 32.7459 25.5098C34.082 25.5098 35.594 25.2854 37.1461 24.624L57.598 17.7395C57.6344 17.7272 57.6703 17.7135 57.7053 17.6982C59.6599 16.8528 62.5726 14.47 61.0928 10.9012ZM7.89663 20.6997H2.65625V7.45449H7.89663V20.6997ZM12.928 18.373H10.5529V7.45449H12.928V18.373ZM56.644 15.4079L36.2012 22.2893C36.1833 22.2953 36.159 22.3042 36.1413 22.311C36.1234 22.3179 36.1055 22.3251 36.0878 22.3327C33.2407 23.5629 30.5344 22.8264 29.4738 22.4387C25.4652 20.7429 23.3257 19.5831 21.7625 18.7356C19.5892 17.5574 18.542 16.9895 15.5842 16.7599V6.70305C16.8432 4.76316 19.2845 2.77744 21.9166 2.77744C26.4304 2.77744 28.343 5.53757 28.4182 5.64895C28.5803 5.89693 28.8296 6.08385 29.1227 6.17737L39.678 9.54547C41.3638 10.1403 42.2547 11.4976 41.8452 12.8511C41.6563 13.4762 41.2196 13.9946 40.6158 14.3109C40.0172 14.6245 39.3253 14.702 38.6657 14.5304L26.7666 10.9853C26.067 10.7769 25.3208 11.141 25.0993 11.7984C24.8776 12.4558 25.2649 13.1575 25.9642 13.3659L37.884 16.9172C37.8966 16.921 37.9092 16.9246 37.922 16.928C38.3978 17.0552 38.8823 17.1181 39.3639 17.1181C40.2455 17.1181 41.1174 16.907 41.9087 16.4924C43.1323 15.8515 44.0171 14.8009 44.4002 13.5341C44.4307 13.433 44.4578 13.3319 44.4813 13.2307L54.4533 10.6335C55.8935 10.171 57.7841 10.0043 58.6258 11.827C59.4971 13.9668 57.2326 15.1439 56.644 15.4079Z" fill="#FA3239"/>
</svg>
