<svg width="90" height="90" viewBox="0 0 90 90" fill="none" xmlns="http://www.w3.org/2000/svg">
<path d="M52.8362 76.1975H35.8437C35.5976 76.1975 35.3595 76.11 35.172 75.9506C34.9845 75.7912 34.8597 75.5704 34.82 75.3275L31.76 56.515C31.716 56.2435 31.7816 55.9656 31.9424 55.7425C32.1032 55.5194 32.346 55.3692 32.6175 55.325C33.1825 55.2338 55.5 55.2325 56.0637 55.325C56.335 55.3695 56.5775 55.5198 56.738 55.7429C56.8986 55.966 56.964 56.2437 56.92 56.515L53.86 75.3275C53.8202 75.5706 53.6953 75.7916 53.5075 75.951C53.3197 76.1104 53.0813 76.1978 52.835 76.1975H52.8362Z" fill="#F4AA41"/>
<path d="M59.7038 57.385H28.9763C28.84 57.3852 28.705 57.3584 28.579 57.3064C28.4531 57.2543 28.3387 57.1779 28.2423 57.0815C28.1459 56.9851 28.0695 56.8707 28.0174 56.7447C27.9653 56.6188 27.9386 56.4838 27.9388 56.3475V49.9138C27.9388 49.7776 27.9656 49.6427 28.0178 49.5169C28.0699 49.3911 28.1464 49.2768 28.2427 49.1806C28.3391 49.0843 28.4535 49.008 28.5793 48.956C28.7052 48.904 28.8401 48.8773 28.9763 48.8775H59.7038C59.8401 48.8773 59.975 48.9041 60.101 48.9561C60.2269 49.0082 60.3414 49.0846 60.4378 49.181C60.5341 49.2774 60.6105 49.3918 60.6626 49.5178C60.7147 49.6437 60.7414 49.7787 60.7413 49.915V56.3487C60.7413 56.4849 60.7144 56.6198 60.6623 56.7456C60.6101 56.8714 60.5337 56.9857 60.4373 57.0819C60.341 57.1782 60.2266 57.2545 60.1007 57.3065C59.9748 57.3585 59.84 57.3852 59.7038 57.385Z" fill="#EA5A47"/>
<path d="M44.09 40.44C43.8301 40.44 43.5766 40.359 43.3649 40.2082C43.1532 40.0574 42.9937 39.8444 42.9087 39.5987C41.3362 35.0337 26.44 25.5862 20.8337 22.33C20.6446 22.2205 20.4874 22.0633 20.378 21.8741C20.2685 21.6849 20.2106 21.4703 20.21 21.2518C20.2093 21.0332 20.266 20.8183 20.3744 20.6285C20.4827 20.4387 20.639 20.2806 20.8275 20.17C22.7949 19.0585 24.9866 18.4023 27.2412 18.2498C29.4957 18.0973 31.7558 18.4523 33.855 19.2887L33.8775 19.3012C44.9137 24.4675 45.3275 38.5662 45.34 39.1637C45.3464 39.4617 45.2462 39.7522 45.0573 39.9828C44.8684 40.2133 44.6034 40.3689 44.31 40.4212C44.2374 40.4341 44.1637 40.4403 44.09 40.44Z" fill="#5C9E31"/>
<path d="M62.6187 16.0525C62.7948 15.9348 62.9381 15.7743 63.0353 15.586C63.1324 15.3978 63.1801 15.188 63.174 14.9762C63.1679 14.7645 63.1081 14.5578 63.0003 14.3754C62.8924 14.1931 62.7401 14.0412 62.5575 13.9338C60.0418 12.5969 57.1405 12.1736 54.3477 12.7359C51.555 13.2982 49.0435 14.8113 47.2412 17.0175C41.1775 23.8425 42.5675 34.5838 42.9687 36.9725C40.0625 34.825 34.1525 31.5725 27.475 34.2538C27.4593 34.2599 27.4439 34.2665 27.4287 34.2738C27.2137 34.3688 22.1737 36.6925 22.1037 42.2013C22.1016 42.3668 22.1323 42.5311 22.1942 42.6846C22.256 42.8382 22.3478 42.9779 22.4641 43.0957C22.5803 43.2135 22.7189 43.307 22.8716 43.3709C23.0243 43.4347 23.1882 43.4675 23.3537 43.4675C23.4648 43.4674 23.5753 43.4527 23.6825 43.4238C23.8175 43.3863 37.2287 39.76 43.7737 40.6788L43.7937 40.6813L43.8087 40.6838C43.8824 40.6892 43.9565 40.688 44.03 40.68C44.0808 40.6833 44.1317 40.6833 44.1825 40.68L44.195 40.6788L44.2075 40.6763C50.295 39.7288 60.99 42.6225 61.0987 42.6513C61.2063 42.6803 61.3173 42.695 61.4287 42.695C61.6168 42.6948 61.8024 42.6522 61.9716 42.5703C62.1409 42.4884 62.2896 42.3694 62.4064 42.2221C62.5233 42.0748 62.6055 41.903 62.6468 41.7196C62.6881 41.5361 62.6875 41.3457 62.645 41.1625C62.1547 39.3845 61.1543 37.789 59.7675 36.573C58.3807 35.357 56.6681 34.5738 54.8412 34.32C51.5548 33.9611 48.2498 34.8082 45.5412 36.7038C45.7575 27.4275 62.4475 16.1663 62.6187 16.0525Z" fill="#B1CC33"/>
<path d="M43.9925 39.1538C43.7939 39.1538 43.5982 39.1064 43.4215 39.0157C43.2449 38.925 43.0924 38.7935 42.9767 38.6321C42.861 38.4707 42.7854 38.284 42.7562 38.0876C42.727 37.8912 42.745 37.6906 42.8088 37.5025C42.9625 37.05 46.6612 26.43 55.575 23.3538C64.84 20.1538 69.4425 27.2875 69.4887 27.3588C69.6025 27.5398 69.6679 27.7469 69.6788 27.9604C69.6897 28.1739 69.6456 28.3866 69.5508 28.5782C69.456 28.7698 69.3136 28.9339 69.1373 29.0548C68.961 29.1757 68.7566 29.2494 68.5437 29.2688C63.1362 29.7688 48.3825 32.4025 45.0937 38.4975C44.9864 38.6963 44.8273 38.8623 44.6331 38.9779C44.439 39.0934 44.2172 39.1542 43.9912 39.1538H43.9925Z" fill="#5C9E31"/>
<path d="M38.9875 48.8775V47.2275C38.9904 46.5374 39.1359 45.8554 39.4149 45.2243C39.6939 44.5932 40.1003 44.0265 40.6087 43.56C40.3647 43.057 40.2377 42.5053 40.2375 41.9462C40.2375 40.9517 40.6326 39.9978 41.3358 39.2946C42.0391 38.5913 42.9929 38.1962 43.9875 38.1962C44.982 38.1962 45.9359 38.5913 46.6391 39.2946C47.3424 39.9978 47.7375 40.9517 47.7375 41.9462C47.7371 42.5049 47.6101 43.0561 47.3662 43.5587C47.8749 44.0253 48.2815 44.5922 48.5606 45.2235C48.8396 45.8549 48.9849 46.5372 48.9875 47.2275V48.8775H38.9875Z" fill="#A57939"/>
</svg>
