<svg width="68" height="64" viewBox="0 0 68 64" fill="none" xmlns="http://www.w3.org/2000/svg">
<path d="M67.0028 13.7629L40.6404 0.153302C40.2443 -0.0511008 39.7641 -0.0511008 39.368 0.153302L29.4315 5.2828C29.2218 5.33475 29.0261 5.4338 28.8639 5.57605L13.0061 13.7629C12.5831 13.9809 12.3203 14.3984 12.3203 14.8524V31.3124C9.64519 32.0989 7.19372 33.4861 5.1554 35.4029C-0.157572 40.3974 -1.51215 48.0152 1.7847 54.3585C2.10488 54.9751 2.89656 55.231 3.55242 54.9294C4.20879 54.6279 4.48043 53.8836 4.16025 53.267C1.35917 47.8773 2.51027 41.4049 7.02485 37.1605C9.84814 34.5061 13.6015 33.0442 17.594 33.0442C21.5865 33.0442 25.3398 34.5061 28.1631 37.1605C30.9859 39.8143 32.5408 43.343 32.5408 47.0966C32.5408 50.8501 30.9859 54.3789 28.1626 57.0332C23.648 61.2776 16.7636 62.3598 11.0308 59.7264C10.3749 59.4249 9.58322 59.6807 9.26303 60.2973C8.94233 60.9144 9.21397 61.6587 9.87035 61.9597C12.328 63.0891 14.9649 63.6377 17.5826 63.6377C22.1494 63.6372 26.6552 61.9661 30.0326 58.7908C31.5813 57.3347 32.8053 55.6548 33.6713 53.8288L39.368 56.7696C39.5663 56.872 39.7852 56.923 40.0042 56.923C40.2232 56.923 40.4426 56.872 40.6404 56.7696L67.0028 43.1605C67.4258 42.942 67.6887 42.5245 67.6887 42.071V33.4331C67.6887 32.7466 67.0968 32.1902 66.3666 32.1902C65.6364 32.1902 65.0446 32.7466 65.0446 33.4331V41.3354L41.3304 53.5778V29.195L49.1568 25.1546V31.5595C49.1568 31.9994 49.4036 32.4063 49.8059 32.6296C50.0135 32.7447 50.2459 32.8024 50.4788 32.8024C50.6978 32.8024 50.9173 32.7515 51.1161 32.6485L56.7653 29.7252C57.1877 29.5068 57.4495 29.0897 57.4495 28.6367V20.8733L65.0446 16.9527V23.4902C65.0446 24.1767 65.6364 24.7331 66.3666 24.7331C67.0968 24.7331 67.6887 24.1767 67.6887 23.4902V14.8524C67.6887 14.3989 67.4258 13.9809 67.0028 13.7629ZM40.0042 2.66052L63.6198 14.8524L56.1703 18.6981L32.5548 6.50631L40.0042 2.66052ZM40.0042 27.0437L16.3887 14.8524L24.1113 10.8653L47.7273 23.0566L40.0042 27.0437ZM50.4737 21.6389L26.8581 9.44757L29.8079 7.9245L53.424 20.1159L50.4737 21.6389ZM30.0326 35.4029C26.7099 32.2791 22.2924 30.5589 17.594 30.5589C16.7052 30.5589 15.8273 30.6205 14.9644 30.7414V16.9527L38.6868 29.1994V53.5821L34.5694 51.4565C34.9747 50.0534 35.1844 48.59 35.1844 47.0966C35.1844 42.6793 33.3547 38.5262 30.0326 35.4029ZM54.8059 27.9021L51.8009 29.4572V23.7898L54.8059 22.2385V27.9021Z" fill="#423783"/>
</svg>
