<svg width="38" height="27" viewBox="0 0 28 27" fill="none" xmlns="http://www.w3.org/2000/svg">
<path d="M23.9402 15.6C21.7402 14.1333 20.6402 12.0667 20.6402 9.4C20.6402 6.8 21.4402 4.73334 23.0402 3.2C24.5736 1.66667 26.5402 0.900002 28.9402 0.900002C31.2736 0.900002 33.2402 1.63334 34.8402 3.1C36.3736 4.56667 37.1402 6.46667 37.1402 8.8C37.1402 11.1333 36.4069 13.4333 34.9402 15.7L27.6402 26.3L19.4402 26.3L23.9402 15.6ZM5.44024 15.6C3.24024 14.1333 2.14024 12.0667 2.14024 9.4C2.14024 6.8 2.94024 4.73333 4.54024 3.2C6.07357 1.66667 8.04024 0.9 10.4402 0.9C12.7736 0.900001 14.7402 1.63333 16.3402 3.1C17.8736 4.56667 18.6402 6.46667 18.6402 8.8C18.6402 11.1333 17.9069 13.4333 16.4402 15.7L9.14024 26.3L0.940234 26.3L5.44024 15.6Z" fill="#0C3F36"/>
</svg>
