<svg width="36" height="36" viewBox="0 0 36 36" fill="none" xmlns="http://www.w3.org/2000/svg">
<circle cx="18" cy="18" r="15" fill="#F9FFFE"/>
<path fill-rule="evenodd" clip-rule="evenodd" d="M27 12.2315C26.3382 12.5255 25.6261 12.7234 24.8791 12.8128C25.6417 12.3557 26.2273 11.6321 26.5026 10.77C25.7899 11.1936 24.9985 11.5001 24.158 11.6663C23.4842 10.9488 22.5237 10.5 21.4624 10.5C19.4231 10.5 17.7696 12.1535 17.7696 14.1928C17.7696 14.4819 17.8026 14.7639 17.8656 15.0345C14.7962 14.8809 12.0754 13.4104 10.2539 11.1762C9.93594 11.7215 9.75415 12.3557 9.75415 13.0324C9.75415 14.3133 10.4051 15.4437 11.3968 16.106C10.7909 16.0868 10.2221 15.9206 9.72355 15.6441V15.6903C9.72355 17.4799 10.9973 18.972 12.6856 19.3122C12.376 19.3962 12.0496 19.4418 11.713 19.4418C11.4748 19.4418 11.2432 19.4184 11.0177 19.3752C11.4874 20.8421 12.8517 21.91 14.4674 21.94C13.2039 22.93 11.6116 23.5209 9.88134 23.5209C9.58256 23.5209 9.28858 23.5035 9 23.4687C10.6343 24.5163 12.5752 25.1282 14.6606 25.1282C21.4528 25.1282 25.1671 19.5012 25.1671 14.6217C25.1671 14.4615 25.1641 14.3019 25.1563 14.1442C25.8787 13.6222 26.505 12.9718 27 12.2315Z" fill="#0C3F36"/>
</svg>
