<svg width="90" height="90" viewBox="0 0 90 90" fill="none" xmlns="http://www.w3.org/2000/svg">
<path d="M57.1079 50.2651L76.3876 63.0508L61.0876 71.6992L41.7967 59.0598L57.1079 50.2651Z" fill="#EA5A47"/>
<path d="M61.0763 72.0536L60.9216 71.9523L41.22 59.043L57.1191 49.9108L76.9641 63.0733L61.0763 72.0536ZM42.3732 59.0795L61.0988 71.3476L75.811 63.0311L57.0938 50.6251L42.3732 59.0795Z" fill="black"/>
<path d="M74.2526 33.494L82.7379 38.2274L76.1342 42.4349L68.0989 37.2571L74.2526 33.494Z" fill="#767676"/>
<path d="M76.1315 42.792L67.5309 37.2514L74.2443 33.1451L83.3231 38.2076L76.1315 42.792ZM68.6671 37.2626L76.1343 42.0748L82.1475 38.2498L74.2725 33.8483L68.6671 37.2626Z" fill="black"/>
<path d="M40.7755 50.082L60.058 62.8704L44.758 71.5189L25.467 58.8795L40.7755 50.082Z" fill="#FFBD3F"/>
<path d="M44.7471 71.8705L44.5924 71.7692L24.8908 58.8627L40.7814 49.7277L60.6264 62.8902L44.7471 71.8705ZM26.0439 58.8964L44.7696 71.1561L59.4817 62.8395L40.7674 50.428L26.0439 58.8964Z" fill="black"/>
<path d="M22.4719 50.5295L42.0582 62.9045L26.9353 71.7301L6.23816 58.6379L22.4719 50.5295Z" fill="#5C9E31"/>
<path d="M26.9297 72.0814L5.625 58.6067L22.5 50.1692L42.6488 62.9014L26.9297 72.0814ZM6.85125 58.6686L26.9438 71.3754L41.4788 62.8929L22.455 50.8751L6.85125 58.6686Z" fill="black"/>
<path d="M5.93732 59.1216L26.5586 71.761V81.7397L5.93732 68.4338V59.1216Z" fill="#EA7747"/>
<path d="M26.8594 82.2939L5.625 68.5999V58.5817L26.8594 71.5924V82.2939ZM6.23812 68.2708L26.2575 81.1858V71.9299L6.23812 59.6617V68.2708Z" fill="black"/>
<path d="M67.6998 37.5272L75.9629 42.8119V62.2435L67.6998 56.9447V37.5272Z" fill="#ED603A"/>
<path d="M76.1148 62.5193L67.5507 57.0265V37.2518L76.1148 42.7277V62.5193ZM67.8517 56.8605L75.8138 61.9652V42.8936L67.8517 37.803V56.8605Z" fill="black"/>
<path d="M76.3566 63.3542V42.7329L83.0081 38.742V81.9814H27.1294V72.0026L42.4294 63.3542L44.3953 72.0026H44.4263L60.39 63.3542L61.5685 72.0026H61.7203L76.3566 63.3542Z" fill="white"/>
<path d="M83.3092 82.2825H26.8286V71.8256L42.6348 62.8903L44.6036 71.5612L60.6348 62.879L61.8217 71.5978L76.0557 63.1856V42.5615L83.312 38.2078L83.3092 82.2825ZM27.4304 81.6778H82.7073V39.2737L76.6576 42.9018V63.5231L76.5086 63.6103L61.802 72.3009H61.3126L60.1567 63.824L44.5079 72.3009H44.1564L42.227 63.8128L27.4332 72.1743L27.4304 81.6778Z" fill="black"/>
<path d="M38.804 71.5499H35.3558C35.0219 71.5499 34.7512 71.8207 34.7512 72.1546V75.6027C34.7512 75.9367 35.0219 76.2074 35.3558 76.2074H38.804C39.1379 76.2074 39.4087 75.9367 39.4087 75.6027V72.1546C39.4087 71.8207 39.1379 71.5499 38.804 71.5499Z" fill="#595959"/>
<path d="M38.8126 76.5H35.3532C35.113 76.5 34.8827 76.4046 34.7128 76.2348C34.543 76.0649 34.4476 75.8346 34.4476 75.5944V72.1547C34.4476 71.9145 34.543 71.6842 34.7128 71.5143C34.8827 71.3445 35.113 71.2491 35.3532 71.2491H38.8126C39.0528 71.2491 39.2831 71.3445 39.4529 71.5143C39.6228 71.6842 39.7182 71.9145 39.7182 72.1547V75.6028C39.716 75.8416 39.6196 76.0697 39.45 76.2378C39.2804 76.4058 39.0513 76.5 38.8126 76.5ZM35.3532 71.851C35.2736 71.8517 35.1975 71.8836 35.1412 71.9399C35.0849 71.9962 35.053 72.0723 35.0523 72.1519V75.6C35.053 75.6796 35.0849 75.7557 35.1412 75.812C35.1975 75.8683 35.2736 75.9002 35.3532 75.901H38.8126C38.8922 75.9002 38.9683 75.8683 39.0246 75.812C39.0808 75.7557 39.1128 75.6796 39.1135 75.6V72.1547C39.1128 72.0751 39.0808 71.999 39.0246 71.9427C38.9683 71.8864 38.8922 71.8545 38.8126 71.8538L35.3532 71.851Z" fill="black"/>
<path d="M55.4963 71.2772H52.0482C51.7142 71.2772 51.4435 71.5479 51.4435 71.8819V75.33C51.4435 75.664 51.7142 75.9347 52.0482 75.9347H55.4963C55.8303 75.9347 56.101 75.664 56.101 75.33V71.8819C56.101 71.5479 55.8303 71.2772 55.4963 71.2772Z" fill="#595959"/>
<path d="M55.4965 76.2358H52.0455C51.8053 76.2358 51.575 76.1403 51.4051 75.9705C51.2353 75.8007 51.1399 75.5703 51.1399 75.3301V71.882C51.1399 71.6418 51.2353 71.4115 51.4051 71.2416C51.575 71.0718 51.8053 70.9764 52.0455 70.9764H55.4936C55.7338 70.9764 55.9642 71.0718 56.134 71.2416C56.3039 71.4115 56.3993 71.6418 56.3993 71.882V75.3301C56.3993 75.5698 56.3042 75.7998 56.135 75.9695C55.9658 76.1393 55.7362 76.235 55.4965 76.2358ZM52.0483 71.5783C51.9687 71.579 51.8926 71.6109 51.8363 71.6672C51.7801 71.7235 51.7481 71.7996 51.7474 71.8792V75.3273C51.7481 75.4069 51.7801 75.483 51.8363 75.5393C51.8926 75.5956 51.9687 75.6275 52.0483 75.6283H55.4965C55.576 75.6275 55.6522 75.5956 55.7084 75.5393C55.7647 75.483 55.7967 75.4069 55.7974 75.3273V71.882C55.7967 71.8024 55.7647 71.7263 55.7084 71.67C55.6522 71.6137 55.576 71.5818 55.4965 71.5811L52.0483 71.5783Z" fill="black"/>
<path d="M72.7902 71.2772H69.3421C69.0082 71.2772 68.7374 71.5479 68.7374 71.8819V75.33C68.7374 75.664 69.0082 75.9347 69.3421 75.9347H72.7902C73.1242 75.9347 73.3949 75.664 73.3949 75.33V71.8819C73.3949 71.5479 73.1242 71.2772 72.7902 71.2772Z" fill="#595959"/>
<path d="M72.7903 76.2358H69.3422C69.102 76.2358 68.8717 76.1403 68.7018 75.9705C68.532 75.8007 68.4366 75.5703 68.4366 75.3301V71.882C68.4366 71.6418 68.532 71.4115 68.7018 71.2416C68.8717 71.0718 69.102 70.9764 69.3422 70.9764H72.7903C73.0305 70.9764 73.2609 71.0718 73.4307 71.2416C73.6005 71.4115 73.696 71.6418 73.696 71.882V75.3301C73.696 75.5703 73.6005 75.8007 73.4307 75.9705C73.2609 76.1403 73.0305 76.2358 72.7903 76.2358ZM69.3422 71.5783C69.2626 71.579 69.1865 71.6109 69.1302 71.6672C69.0739 71.7235 69.042 71.7996 69.0413 71.8792V75.3273C69.042 75.4069 69.0739 75.483 69.1302 75.5393C69.1865 75.5956 69.2626 75.6275 69.3422 75.6283H72.7903C72.8699 75.6275 72.946 75.5956 73.0023 75.5393C73.0586 75.483 73.0905 75.4069 73.0913 75.3273V71.882C73.0905 71.8024 73.0586 71.7263 73.0023 71.67C72.946 71.6137 72.8699 71.5818 72.7903 71.5811L69.3422 71.5783Z" fill="black"/>
<path d="M76.5422 31.5845C76.3959 31.7786 75.3694 30.8476 74.7056 30.1051C74.1536 29.4717 73.6673 28.7838 73.2544 28.052C72.8131 27.3845 72.4843 26.6491 72.2813 25.8751C72.1395 25.2463 72.0903 24.6001 72.135 23.957C72.1649 23.2421 72.2868 22.5341 72.4978 21.8504C72.9627 20.5627 73.7204 19.4006 74.7113 18.4558C75.9932 17.2181 77.1983 15.9031 78.3197 14.5183C78.9146 13.7327 79.3703 12.8508 79.6669 11.9111C79.8957 11.1274 80.0381 10.321 80.0916 9.50638C80.145 8.48263 80.0213 7.83857 80.1563 7.78232C80.2913 7.72607 80.7609 8.55294 80.9634 9.36857C81.2357 11.4273 80.7801 13.5164 79.6753 15.2748C78.8335 16.7619 77.7989 18.1312 76.5984 19.3473C75.5021 20.2659 74.6766 21.4657 74.2106 22.8179C74.0395 23.4474 73.9581 24.0979 73.9688 24.7501C74.0674 26.281 74.5261 27.7669 75.3075 29.087C76.1175 30.6958 76.6575 31.4298 76.5422 31.5845Z" fill="#F4AA41"/>
<path d="M76.4802 31.6858C76.1314 31.6858 75.0964 30.6593 74.6492 30.1558C74.0937 29.5185 73.6037 28.8269 73.1867 28.0915C72.7447 27.4172 72.416 26.6753 72.2136 25.8949C72.0694 25.2588 72.0192 24.605 72.0645 23.9543C72.0943 23.2327 72.2171 22.518 72.4302 21.828C72.9025 20.5326 73.6655 19.3626 74.6605 18.408C75.4874 17.4771 76.0667 16.923 76.5139 16.4786C77.1672 15.8769 77.7537 15.2065 78.2633 14.479C78.8534 13.6999 79.3062 12.8258 79.602 11.8943C79.8294 11.1161 79.9708 10.3154 80.0239 9.50646C80.0464 9.05927 80.0239 8.67958 80.0239 8.40114C80.0239 7.95396 80.007 7.76833 80.1308 7.71771C80.1497 7.70871 80.1703 7.70404 80.1913 7.70404C80.2122 7.70404 80.2328 7.70871 80.2517 7.71771C80.6545 8.18077 80.9263 8.74292 81.0392 9.34614C81.324 11.4249 80.8659 13.5375 79.7455 15.3115C78.8987 16.8039 77.8584 18.178 76.6517 19.398C76.497 19.5668 76.3452 19.7243 76.1961 19.879C75.2961 20.6689 74.6331 21.6932 74.2808 22.8377C74.1173 23.455 74.0397 24.092 74.0502 24.7305C74.1508 26.2492 74.6064 27.7231 75.3805 29.0336C75.7011 29.6833 75.9852 30.2008 76.1933 30.5777C76.5561 31.2386 76.6939 31.4861 76.5927 31.6155C76.5794 31.6328 76.5624 31.6469 76.5429 31.6566C76.5234 31.6664 76.502 31.6716 76.4802 31.6718V31.6858ZM80.1899 7.87521C80.1702 8.05279 80.1702 8.232 80.1899 8.40958C80.1899 8.69083 80.2095 9.07333 80.1899 9.53458C80.1358 10.3549 79.9925 11.1669 79.7624 11.9561C79.4621 12.9026 79.0027 13.791 78.4039 14.583C77.8887 15.3188 77.2956 15.9968 76.6349 16.6052C76.1792 17.0496 75.6111 17.6008 74.787 18.5261C73.8059 19.4685 73.0535 20.623 72.5877 21.9011C72.3783 22.5793 72.2573 23.2817 72.2277 23.9908C72.1835 24.6274 72.2328 25.267 72.3739 25.8893C72.5742 26.6557 72.8981 27.3843 73.333 28.0465C73.7443 28.7728 74.2277 29.456 74.7758 30.0855C75.2442 30.6883 75.8285 31.1913 76.4942 31.5649C76.3995 31.2557 76.2602 30.962 76.0808 30.693C75.7965 30.1831 75.5246 29.6664 75.2652 29.1433C74.4719 27.8067 74.0064 26.3013 73.9067 24.7502C73.8963 24.0974 73.9758 23.4463 74.143 22.8152C74.5048 21.6478 75.1799 20.602 76.0949 19.7918C76.2411 19.6371 76.393 19.4796 76.5477 19.3108C77.7435 18.0997 78.7743 16.736 79.6133 15.2552C80.7158 13.5137 81.1698 11.4396 80.8958 9.39677C80.7835 8.8411 80.5416 8.31979 80.1899 7.87521Z" fill="black"/>
<path d="M84.2962 17.1197C84.2427 16.8722 83.0812 17.0072 82.1418 17.325C80.9951 17.7427 79.9711 18.4408 79.1633 19.3556C77.6701 20.702 76.7483 22.5686 76.5871 24.5728C76.6429 25.6028 76.889 26.6136 77.3127 27.554C77.9343 29.1628 78.5924 29.7281 78.5615 30.9994C78.5418 31.8431 78.2408 32.3606 78.4265 32.5434C78.6121 32.7262 79.3096 32.2622 79.7258 31.6631C80.2501 30.7992 80.5038 29.7981 80.4543 28.7887C80.3249 26.4965 78.7668 25.934 78.7443 23.7262C78.7458 23.0754 78.8688 22.4306 79.1071 21.825C80.353 18.3065 84.3974 17.5837 84.2962 17.1197Z" fill="#F4AA41"/>
<path d="M78.5645 32.6728C78.5289 32.6743 78.4934 32.6686 78.46 32.656C78.4267 32.6435 78.3962 32.6243 78.3705 32.5996C78.2411 32.4703 78.2861 32.2565 78.3564 31.9331C78.4287 31.6276 78.4711 31.3158 78.483 31.0021C78.4743 30.2843 78.2659 29.5831 77.8811 28.9771C77.6422 28.5251 77.4281 28.0603 77.2398 27.5849C76.8122 26.6358 76.5652 25.6152 76.5114 24.5756C76.6673 22.5504 77.5969 20.663 79.1074 19.3049C79.9247 18.3823 80.959 17.6777 82.1167 17.2546C82.7974 16.9721 83.5407 16.875 84.2711 16.9734C84.2974 16.9852 84.3206 17.0031 84.3387 17.0256C84.3568 17.0481 84.3693 17.0745 84.3752 17.1028C84.4173 17.2996 84.1164 17.4431 83.5145 17.7328C82.5532 18.0938 81.6741 18.6439 80.9292 19.3507C80.1843 20.0574 79.5887 20.9064 79.1777 21.8474C78.9424 22.4449 78.8213 23.0812 78.8205 23.7234C78.8477 24.6146 79.132 25.479 79.6389 26.2124C80.1542 26.9774 80.4615 27.8633 80.5305 28.7831C80.583 29.8097 80.3242 30.8282 79.788 31.7053C79.5157 32.1526 79.0975 32.4923 78.6039 32.6671L78.5645 32.6728ZM83.8773 17.0662C83.2943 17.0915 82.7181 17.2024 82.1673 17.3953C81.0332 17.8106 80.0203 18.5017 79.2198 19.4062C77.737 20.7371 76.8219 22.5866 76.6633 24.5728C76.7184 25.5932 76.9626 26.5946 77.3833 27.5259C77.5691 27.9964 77.7803 28.4565 78.0161 28.904C78.4113 29.5322 78.6254 30.2572 78.6348 30.9993C78.6221 31.3226 78.5779 31.6438 78.5027 31.9584C78.4492 32.2143 78.4042 32.4168 78.4773 32.4871C78.492 32.4994 78.5092 32.5083 78.5276 32.5132C78.5461 32.518 78.5654 32.5188 78.5842 32.5153C79.0323 32.3428 79.4103 32.0262 79.6586 31.6153C80.1698 30.764 80.4183 29.7807 80.373 28.7887C80.3041 27.8929 80.0036 27.0303 79.5011 26.2856C78.9813 25.5294 78.6886 24.6404 78.6573 23.7234C78.6575 23.0631 78.7815 22.4086 79.023 21.794C79.4412 20.8335 80.0484 19.967 80.8084 19.2461C81.5685 18.5252 82.4658 17.9646 83.447 17.5978C83.8014 17.4262 84.243 17.2153 84.2261 17.1365L84.2036 17.1168C84.1 17.0757 83.9885 17.0584 83.8773 17.0662Z" fill="black"/>
</svg>
